<svg width="126" height="126" viewBox="0 0 126 126" fill="none" xmlns="http://www.w3.org/2000/svg">
<path d="M61.5727 47.2305C59.6137 47.2305 57.8025 48.7188 57.5151 50.5537C57.2473 52.3758 58.6865 53.8868 60.6523 53.8868C62.619 53.8868 64.4421 52.3876 64.6862 50.5527C64.9294 48.7188 63.5335 47.2315 61.5736 47.2315L61.5727 47.2305ZM36.4199 49.1539L31.5728 78.3505H38.6269L40.5661 66.6207H52.1699L53.1385 60.8719H41.5357L42.5053 54.885H55.375L56.3456 49.1539H36.4199ZM67.2564 49.1539L62.4173 78.3485H69.3138L69.8847 74.7969H70.1564C70.6683 76.8218 72.322 78.6596 75.6276 78.6596C80.4746 78.6596 85.0352 74.8688 86.2618 67.4141C87.5513 59.6897 84.0105 56.1696 79.4341 56.1696C75.9711 56.1696 73.7051 58.1905 72.5652 60.2006H72.4155L74.2238 49.1539H67.2564ZM124.089 56.1578C121.694 56.1578 119.543 57.5497 118.246 60.4428H118.02L118.694 56.4521H111.931L108.283 78.3466H115.253L117.219 66.4593C117.674 63.8507 119.814 62.0965 122.279 62.0965C123.149 62.0965 124.332 62.2255 124.973 62.4676L126 56.396C125.375 56.2424 124.733 56.1625 124.089 56.1578ZM99.8146 56.1715C93.2144 56.1715 88.1951 60.7036 87.0709 67.4869C85.8877 74.4829 89.3931 78.759 96.267 78.7689C102.036 78.7689 106.214 75.99 107.766 71.6843L101.41 71.5002C100.615 72.967 99.0429 73.7377 97.2316 73.7377C94.5098 73.7377 93.1996 72.1204 93.6406 69.3405L93.6849 69.0846H108.264L108.537 67.3452C109.734 60.1465 106.029 56.1706 99.8137 56.1706L99.8146 56.1715ZM56.6695 56.4521L53.0243 78.3466H59.9957L63.6379 56.4521H56.6695ZM9.36534 56.9039L7.54425 59.4859L31.691 59.4722L32.1113 56.9029L9.36534 56.9039ZM99.1718 61.2027C101.452 61.2027 102.793 62.7993 102.437 65.0358H94.4242C94.9243 62.8702 96.9196 61.2027 99.1718 61.2027ZM76.0567 61.6201C78.6437 61.6201 79.6635 63.8743 79.1004 67.4082C78.5374 70.9421 76.7045 73.2377 74.1392 73.2377C71.5877 73.2377 70.4911 70.948 71.0679 67.4082C71.6369 63.831 73.5043 61.6201 76.0567 61.6201ZM1.87228 62.256L0 64.8281L30.8867 64.8055L31.308 62.256H1.87228ZM17.9274 67.607L16.2363 70.189L30.0835 70.1792L30.5038 67.607H17.9274Z" fill="#C3C3C3"/>
</svg>
