<svg width="126" height="126" viewBox="0 0 126 126" fill="none" xmlns="http://www.w3.org/2000/svg">
<path d="M126 29.2191C126 29.2191 83.9998 -1.68638 51.5095 5.44542L49.1322 6.23784C44.3777 7.82269 40.4156 10.2 38.0383 13.3696L36.4535 15.7469L24.5662 36.3509L45.1691 40.313C53.8868 45.8609 64.9816 48.2372 75.2831 45.8609L111.736 52.9927L126 29.2191Z" fill="#C3C3C3"/>
<path opacity="0.3" d="M126 29.2191C126 29.2191 83.9998 -1.68638 51.5095 5.44542L49.1322 6.23784C44.3777 7.82269 40.4156 10.2 38.0383 13.3696L36.4535 15.7469L24.5662 36.3509L45.1691 40.313C53.8868 45.8609 64.9816 48.2372 75.2831 45.8609L111.736 52.9927L126 29.2191Z" fill="url(#paint0_linear_244_12)"/>
<path d="M38.0382 29.2193L34.8685 30.0118C21.3953 33.9739 17.4332 46.6536 24.565 57.7475C32.4892 68.049 49.1311 73.596 62.6023 69.6348L111.734 52.993C111.734 52.993 69.736 22.0876 38.0382 29.2193Z" fill="#C3C3C3"/>
<path opacity="0.3" d="M38.0382 29.2193L34.8685 30.0118C21.3953 33.9739 17.4332 46.6536 24.565 57.7475C32.4892 68.049 49.1311 73.596 62.6023 69.6348L111.734 52.993C111.734 52.993 69.736 22.0876 38.0382 29.2193Z" fill="url(#paint1_linear_244_12)"/>
<path d="M103.019 64.8802C98.5819 59.3378 92.5918 55.2457 85.8154 53.128C79.0391 51.0103 71.7848 50.9632 64.9815 52.9928L15.8484 68.8413L0 96.578L88.7552 111.634L104.604 83.1059C107.773 77.5589 106.981 71.2195 103.019 64.8792V64.8802Z" fill="url(#paint2_linear_244_12)"/>
<path d="M87.1694 92.6147C82.7324 87.0725 76.7422 82.9806 69.9658 80.8631C63.1895 78.7455 55.9353 78.6986 49.1321 80.7284L0 96.5768C0 96.5768 42.0003 128.276 74.4906 120.351L76.8679 119.558C90.34 115.596 95.0946 102.916 87.1694 92.6147Z" fill="url(#paint3_linear_244_12)"/>
<defs>
<linearGradient id="paint0_linear_244_12" x1="18.6228" y1="3.86067" x2="117.283" y2="51.804" gradientUnits="userSpaceOnUse">
<stop offset="0.1" stop-color="#A7A7A7"/>
<stop offset="0.3" stop-color="white"/>
<stop offset="1" stop-color="#A7A7A7"/>
</linearGradient>
<linearGradient id="paint1_linear_244_12" x1="72.7471" y1="27.3175" x2="55.4717" y2="84.8495" gradientUnits="userSpaceOnUse">
<stop stop-color="#949494"/>
<stop offset="0.5" stop-color="#C3C3C3"/>
<stop offset="1" stop-color="#949494"/>
</linearGradient>
<linearGradient id="paint2_linear_244_12" x1="11.4114" y1="52.3588" x2="111.181" y2="120.193" gradientUnits="userSpaceOnUse">
<stop stop-color="white"/>
<stop offset="0.5" stop-color="#CFCFCF"/>
<stop offset="1" stop-color="white"/>
</linearGradient>
<linearGradient id="paint3_linear_244_12" x1="56.4227" y1="60.5209" x2="16.1661" y2="208.155" gradientUnits="userSpaceOnUse">
<stop stop-color="#DADADA"/>
<stop offset="0.5" stop-color="#8C8C8C"/>
<stop offset="1"/>
</linearGradient>
</defs>
</svg>
