<svg width="126" height="126" viewBox="0 0 126 126" fill="none" xmlns="http://www.w3.org/2000/svg">
<g clip-path="url(#clip0_244_68)">
<path d="M0 63C0 113.81 12.19 126 63 126C113.81 126 126 113.81 126 63C126 12.19 113.81 0 63 0C12.19 0 0 12.19 0 63ZM42.7283 102.518C28.2112 102.587 20.0926 89.1539 25.405 76.0843L45.1676 31.1784C50.023 17.372 72.6173 13.6176 80.8359 31.1784L100.595 76.0843C105.939 88.9988 97.8488 102.676 83.2717 102.518C78.4503 102.855 68.8964 98.1951 62.9852 98.564C54.9847 98.4747 49.5313 102.721 42.7283 102.518ZM82.2465 83.1445L63 39.0056L43.4953 83.1445C55.1927 77.98 70.0735 77.6684 82.2465 83.1445Z" fill="#C3C3C3"/>
</g>
<defs>
<clipPath id="clip0_244_68">
<rect width="126" height="126" fill="white"/>
</clipPath>
</defs>
</svg>
