<svg width="126" height="126" viewBox="0 0 126 126" fill="none" xmlns="http://www.w3.org/2000/svg">
<g clip-path="url(#clip0_244_72)">
<path d="M93.454 40.8987C92.6761 41.6766 71.9759 38.617 62.1024 39.1485C48.6182 39.874 41.9805 44.5421 39.6987 43.0895C38.2768 42.1833 40.4838 34.1412 43.7888 31.8002C45.4197 29.2371 57.5969 32.9888 71.2086 33.9087C80.8545 34.5603 89.7345 38.8495 93.454 40.8987ZM101.028 47.3794C129.657 53.4092 132.727 74.57 115.054 86.7817C77.2458 109.176 13.2166 110.847 1.51385 87.7476C1.51385 87.7476 -8.63112 68.0749 23.5995 56.3337C31.3161 45.1781 30.4392 31.8486 36.6403 24.9632C39.9724 22.1011 44.1757 20.8645 53.9269 22.1963C61.5327 23.0257 83.797 27.037 89.1921 28.9728C102.139 33.3754 101.379 40.7243 101.028 47.3794ZM96.5085 59.3779C96.7915 57.041 96.8489 46.3659 97.027 42.7378C97.2502 38.2166 94.4898 35.2632 87.7965 32.8613C82.8395 31.0825 60.9024 27.1131 53.4788 26.3034C47.1788 25.5201 41.9055 25.5873 39.4519 27.9904C36.4818 31.07 34.6167 39.8442 32.2864 48.1942C30.9496 52.9842 27.1625 57.5512 26.2005 61.01C29.3419 64.0884 36.1698 67.026 50.6228 67.026H81.5295C89.8047 67.2148 95.9191 63.9326 96.5085 59.3779ZM23.4305 75.627C22.4606 73.9398 20.4252 67.386 21.5274 62.5087C8.56567 68.1664 2.3924 77.3531 6.49799 85.5579C18.0366 104.374 58.3864 100.794 83.5876 94.4768C121.734 86.8848 135.23 61.2704 101.058 52.1752C101.197 56.3532 100.288 72.1772 100.288 72.1772C100.595 87.1602 33.2538 88.193 23.4305 75.627Z" fill="#C3C3C3"/>
</g>
<defs>
<clipPath id="clip0_244_72">
<rect width="126" height="126" fill="white"/>
</clipPath>
</defs>
</svg>
