<svg width="126" height="126" viewBox="0 0 126 126" fill="none" xmlns="http://www.w3.org/2000/svg">
<g clip-path="url(#clip0_244_66)">
<path d="M74.3527 18.192C72.0628 14.5877 72.7951 12.2109 74.0588 9.7571C75.1901 7.56046 75.6523 3.74306 71.655 0.738992C75.3353 -0.615755 81.1429 1.77948 81.2428 6.16659C79.1072 9.10495 73.2738 10.2727 74.3527 18.192ZM100.776 99.1849C98.9894 104.976 99.8039 108.058 92.0333 120.083C105.773 110.808 112.255 98.8329 114.394 85.2419C115.737 90.9092 115.864 96.0499 115.337 100.907C126.722 85.9184 134.523 55.693 108.284 25.3097C107.228 38.7398 94.2398 49.3145 79.2603 45.168C104.944 42.3367 106.59 9.67761 84.5257 2.13631C84.9566 11.2221 72.5601 8.24682 76.2058 20.4019C63.5792 13.258 35.9918 11.7898 25.0247 22.628C19.3709 28.2154 15.5117 32.8363 8.44557 33.1417C2.61143 33.3937 -5.09279 42.8609 4.93111 47.7025C5.88841 51.7372 9.253 54.0345 11.204 54.4305C10.7185 61.6152 12.247 57.9521 14.4864 54.8203C13.7339 63.9024 14.9742 60.6306 18.484 55.958C48.1801 49.9523 64.5798 74.1699 64.7654 89.0443C64.6349 86.3457 60.3207 83.207 58.0376 84.0715C56.4951 87.3396 54.8143 90.1133 52.74 91.4819C52.9568 89.315 52.8089 87.1482 52.4151 84.9816C51.731 87.6017 50.4432 90.3225 48.3849 93.1718C44.2904 93.4004 38.5601 90.355 40.2269 85.3066C42.5783 80.3971 37.9662 79.3763 34.2507 80.7817C31.4588 81.838 29.572 84.763 29.3141 85.6726C28.3826 88.9533 28.689 96.2778 35.0594 101.135C33.3894 101.442 31.6749 101.716 30.5091 102.402C41.3454 108.956 52.406 106.741 58.5653 104.268C68.6497 100.219 75.6051 89.0121 76.6933 80.3666C79.4923 92.527 74.4777 106.042 63.2374 113.29C66.4489 113.63 72.7349 111.455 79.1628 109.163C74.3035 115.278 68.4949 121.077 58.9797 125.641C77.7217 124.071 91.4304 114.66 100.776 99.1849" fill="#C3C3C3"/>
</g>
<defs>
<clipPath id="clip0_244_66">
<rect width="126" height="126" fill="white"/>
</clipPath>
</defs>
</svg>
