<svg width="126" height="126" viewBox="0 0 126 126" fill="none" xmlns="http://www.w3.org/2000/svg">
<path d="M107.588 35.3064C108.932 33.5529 111.011 32.5239 113.221 32.5239H115.006L91.9485 62.6747L115.5 93.4659H113.715C112.625 93.4664 111.55 93.2156 110.573 92.733C109.596 92.2504 108.744 91.5491 108.082 90.6834L89.3077 66.1344L70.5285 90.6834C69.8671 91.5484 69.0154 92.2493 68.0394 92.7318C67.0634 93.2144 65.9893 93.4656 64.9005 93.4659H63.1155L86.6617 62.6747L63.609 32.5239H65.394C67.599 32.5239 69.6832 33.5529 71.022 35.3064L89.3025 59.2149L107.588 35.3064Z" fill="#C3C3C3"/>
<path fill-rule="evenodd" clip-rule="evenodd" d="M29.2058 90.0164C39.3068 93.7019 49.8698 89.5229 55.2405 81.3697C56.2905 79.7684 58.023 78.7552 59.9445 78.7552H61.2833C56.3483 91.5494 41.7532 98.9992 27.8775 94.0064C17.2567 90.1844 10.5 79.6897 10.5 68.4022V56.6999C10.5046 53.0379 11.2739 49.4172 12.7585 46.0697C14.2432 42.7221 16.4105 39.7214 19.1217 37.2598C21.8329 34.7982 25.0283 32.9298 28.5032 31.7743C31.9781 30.6189 35.6561 30.2017 39.3015 30.5497C52.9147 31.8254 63.0367 43.7954 63.0367 57.4664V66.1499H14.7053V68.4809C14.7053 77.9414 20.3175 86.7772 29.2058 90.0164ZM36.7657 34.6289C30.9184 34.64 25.3136 36.9678 21.1789 41.1025C17.0441 45.2373 14.7164 50.842 14.7053 56.6894V61.9499H58.8367V56.6999C58.8284 50.8498 56.5011 45.2416 52.365 41.1044C48.2288 36.9672 42.6211 34.6386 36.771 34.6289" fill="#C3C3C3"/>
</svg>
