<svg width="126" height="126" viewBox="0 0 126 126" fill="none" xmlns="http://www.w3.org/2000/svg">
<path d="M63 9.7124C61.5825 9.7124 60.1125 10.0799 58.905 10.7624L19.845 33.3374C17.325 34.8074 15.75 37.5374 15.75 40.4774V85.5224C15.75 88.4624 17.325 91.1924 19.845 92.6624L30.0825 98.5424C35.07 100.957 36.75 101.01 39.06 101.01C46.41 101.01 50.6625 96.5474 50.6625 88.7774V44.3099C50.6625 43.6799 50.1375 43.1549 49.5075 43.1549H44.625C43.9425 43.1549 43.4175 43.6799 43.4175 44.3099V88.7774C43.4175 92.2424 39.8475 95.6549 34.125 92.7674L23.3625 86.6249C23.1857 86.5001 23.0412 86.335 22.9408 86.1433C22.8404 85.9516 22.787 85.7388 22.785 85.5224V40.4774C22.785 40.0049 22.995 39.5849 23.3625 39.3749L62.4225 16.8524C62.7375 16.6424 63.2625 16.6424 63.5775 16.8524L102.637 39.3749C103.005 39.5849 103.215 40.0049 103.215 40.4774V85.5224C103.215 85.9424 103.005 86.3624 102.637 86.6249L63.5775 109.147C63.2625 109.357 62.7375 109.357 62.37 109.147L52.5 103.162C52.08 103.005 51.66 102.952 51.3975 103.11C48.615 104.685 48.09 105 45.5175 105.787C44.8875 105.997 43.89 106.365 45.885 107.467L58.905 115.185C60.165 115.92 61.53 116.287 63 116.287C64.47 116.287 65.835 115.92 67.095 115.185L106.155 92.6624C108.675 91.1924 110.25 88.4624 110.25 85.5224V40.4774C110.25 37.5374 108.675 34.8074 106.155 33.3374L67.095 10.7624C65.8875 10.0799 64.47 9.7124 63 9.7124ZM73.5 41.9999C62.37 41.9999 55.7025 46.6724 55.7025 54.5474C55.7025 62.9999 62.3175 65.4674 73.0275 66.5174C85.785 67.7774 86.7825 69.6674 86.7825 72.1874C86.7825 76.5449 83.265 78.3824 75.075 78.3824C64.68 78.3824 62.475 75.8099 61.6875 70.6649C61.6322 70.399 61.4874 70.1601 61.2772 69.9881C61.067 69.8161 60.8041 69.7214 60.5325 69.7199H55.4925C54.8625 69.7199 54.39 70.1924 54.39 70.8749C54.39 77.3849 57.96 85.2599 75.075 85.2599C87.4125 85.2599 94.5 80.3774 94.5 71.8724C94.5 63.4199 88.83 61.2149 76.8075 59.5874C64.68 58.0124 63.4725 57.1724 63.4725 54.3374C63.4725 51.9749 64.5225 48.8249 73.5 48.8249C81.375 48.8249 84.4725 50.5574 85.68 55.9649C85.785 56.4899 86.2575 56.8574 86.7825 56.8574H91.875C92.1375 56.8574 92.4525 56.7524 92.6625 56.4899C92.8725 56.2799 93.03 55.9649 92.925 55.6499C92.19 46.3049 85.995 41.9999 73.5 41.9999Z" fill="#C3C3C3"/>
</svg>
