<svg width="126" height="126" viewBox="0 0 126 126" fill="none" xmlns="http://www.w3.org/2000/svg">
<path d="M63 53.0777C68.4075 53.0777 72.8175 57.4877 72.8175 63.0002C72.8175 68.2502 68.4075 72.7127 63 72.7127C57.5925 72.7127 53.1825 68.2502 53.1825 63.0002C53.1825 57.4877 57.5925 53.0777 63 53.0777ZM38.6925 105C42 106.995 49.245 103.95 57.5925 96.0752C54.8625 92.9777 52.185 89.6177 49.665 86.1002C45.4347 85.6923 41.2288 85.0615 37.065 84.2102C34.3875 95.4452 35.385 103.163 38.6925 105ZM42.42 74.8652L40.8975 72.1877C40.32 73.7102 39.7425 75.2327 39.375 76.7027C40.7925 77.0177 42.3675 77.2802 43.995 77.5427L42.42 74.8652ZM76.755 70.8752L81.0075 63.0002L76.755 55.1252C75.18 52.3427 73.5 49.8752 71.9775 47.4077C69.1425 47.2502 66.15 47.2502 63 47.2502C59.85 47.2502 56.8575 47.2502 54.0225 47.4077C52.5 49.8752 50.82 52.3427 49.245 55.1252L44.9925 63.0002L49.245 70.8752C50.82 73.6577 52.5 76.1252 54.0225 78.5927C56.8575 78.7502 59.85 78.7502 63 78.7502C66.15 78.7502 69.1425 78.7502 71.9775 78.5927C73.5 76.1252 75.18 73.6577 76.755 70.8752ZM63 35.5952C62.0025 36.7502 60.9525 37.9577 59.9025 39.3752H66.0975C65.0475 37.9577 63.9975 36.7502 63 35.5952ZM63 90.4052C63.9975 89.2502 65.0475 88.0427 66.0975 86.6252H59.9025C60.9525 88.0427 62.0025 89.2502 63 90.4052ZM87.255 21.0002C84 19.0052 76.755 22.0502 68.4075 29.9252C71.1375 33.0227 73.815 36.3827 76.335 39.9002C80.64 40.3202 84.8925 40.9502 88.935 41.7902C91.6125 30.5552 90.615 22.8377 87.255 21.0002ZM83.58 51.1352L85.1025 53.8127C85.68 52.2902 86.2575 50.7677 86.625 49.2977C85.2075 48.9827 83.6325 48.7202 82.005 48.4577L83.58 51.1352ZM91.1925 14.1227C98.91 18.5327 99.75 30.1352 96.495 43.6802C109.83 47.6177 119.438 54.1277 119.438 63.0002C119.438 71.8727 109.83 78.3827 96.495 82.3202C99.75 95.8652 98.91 107.468 91.1925 111.878C83.5275 116.288 73.08 111.248 63 101.64C52.92 111.248 42.4725 116.288 34.755 111.878C27.09 107.468 26.25 95.8652 29.505 82.3202C16.17 78.3827 6.5625 71.8727 6.5625 63.0002C6.5625 54.1277 16.17 47.6177 29.505 43.6802C26.25 30.1352 27.09 18.5327 34.755 14.1227C42.4725 9.71267 52.92 14.7527 63 24.3602C73.08 14.7527 83.5275 9.71267 91.1925 14.1227ZM89.67 63.0002C91.455 66.9377 93.03 70.8752 94.3425 74.8652C105.367 71.5577 111.562 66.8327 111.562 63.0002C111.562 59.1677 105.367 54.4427 94.3425 51.1352C93.03 55.1252 91.455 59.0627 89.67 63.0002ZM36.33 63.0002C34.545 59.0627 32.97 55.1252 31.6575 51.1352C20.6325 54.4427 14.4375 59.1677 14.4375 63.0002C14.4375 66.8327 20.6325 71.5577 31.6575 74.8652C32.97 70.8752 34.545 66.9377 36.33 63.0002ZM83.58 74.8652L82.005 77.5427C83.6325 77.2802 85.2075 77.0177 86.625 76.7027C86.2575 75.2327 85.68 73.7102 85.1025 72.1877L83.58 74.8652ZM68.4075 96.0752C76.755 103.95 84 106.995 87.255 105C90.615 103.163 91.6125 95.4452 88.935 84.2102C84.8925 85.0502 80.64 85.6802 76.335 86.1002C73.815 89.6177 71.1375 92.9777 68.4075 96.0752ZM42.42 51.1352L43.995 48.4577C42.3675 48.7202 40.7925 48.9827 39.375 49.2977C39.7425 50.7677 40.32 52.2902 40.8975 53.8127L42.42 51.1352ZM57.5925 29.9252C49.245 22.0502 42 19.0052 38.6925 21.0002C35.385 22.8377 34.3875 30.5552 37.065 41.7902C41.2288 40.9389 45.4347 40.308 49.665 39.9002C52.185 36.3827 54.8625 33.0227 57.5925 29.9252Z" fill="#C3C3C3"/>
</svg>
