<svg width="126" height="126" viewBox="0 0 126 126" fill="none" xmlns="http://www.w3.org/2000/svg">
<path d="M57.6976 10.3636C73.0276 0.598586 94.2218 5.15558 104.953 20.5171C107.5 24.0818 109.309 28.119 110.276 32.3922C111.242 36.6653 111.346 41.0884 110.581 45.4021C109.836 49.5212 108.265 53.4468 105.961 56.9416C109.321 63.3518 110.45 70.6966 109.163 77.8208C108.406 82.0495 106.773 86.0735 104.371 89.6353C101.97 93.1971 98.8505 96.2184 95.2141 98.5058L68.2973 115.663C52.9673 125.428 31.7731 120.876 21.0368 105.515C18.4911 101.948 16.6829 97.91 15.7183 93.6359C14.7536 89.3618 14.652 84.9382 15.4193 80.6243C16.1638 76.5052 17.7355 72.5797 20.0393 69.0848C16.6787 62.6752 15.5499 55.3284 16.8316 48.2056C17.59 43.9765 19.2229 39.9522 21.6258 36.3904C24.0287 32.8285 27.1487 29.8075 30.7861 27.5206L57.6976 10.3636ZM42.2573 106.313C46.3628 107.835 50.8306 108.056 55.0673 106.958C57.0046 106.439 58.8473 105.63 60.5378 104.554L87.4598 87.4021C89.6464 86.0253 91.5217 84.2076 92.9663 82.0653C94.4108 79.9229 95.3927 77.5028 95.8493 74.9596C96.309 72.3657 96.2463 69.7062 95.6648 67.1369C95.0834 64.5676 93.9948 62.1403 92.4631 59.9971C89.97 56.4008 86.4328 53.6566 82.3297 52.1356C78.2266 50.6145 73.7555 50.3899 69.5206 51.4921C67.5833 52.0118 65.7406 52.8203 64.0501 53.8966L53.7758 60.4381C53.2676 60.7643 52.7113 61.0088 52.1273 61.1626C51.3002 61.3767 50.4387 61.4241 49.593 61.3021C48.7473 61.1801 47.9344 60.891 47.2015 60.4518C46.4686 60.0125 45.8305 59.4319 45.3241 58.7436C44.8178 58.0554 44.4535 57.2733 44.2523 56.4428C44.0722 55.6674 44.0543 54.863 44.1998 54.0803C44.3383 53.3161 44.6337 52.5888 45.0675 51.9446C45.5012 51.3003 46.0638 50.7529 46.7198 50.3371L73.6471 33.1801C74.1553 32.8539 74.7116 32.6094 75.2956 32.4556C76.5723 32.1265 77.9193 32.196 79.1553 32.655C80.3913 33.1139 81.4573 33.9402 82.2098 35.0228C83.0341 36.1883 83.4173 37.6058 83.2966 39.0233L83.2021 40.0208L84.2048 40.3253C87.9882 41.4675 91.5483 43.2484 94.7311 45.5911L96.1118 46.5991L96.6158 45.0503C96.8888 44.2278 97.1041 43.3913 97.2616 42.5408C97.722 39.9473 97.6601 37.288 97.0796 34.7187C96.499 32.1494 95.4114 29.7219 93.8806 27.5783C91.3878 23.9801 87.8501 21.2342 83.7459 19.7121C79.6417 18.1901 75.169 17.9653 70.9328 19.0681C68.9962 19.5826 67.1509 20.3937 65.4623 21.4726L38.5351 38.6243C36.3466 40.0001 34.4692 41.8172 33.0229 43.9597C31.5765 46.1021 30.5929 48.5227 30.1351 51.0668C29.6754 53.6607 29.7381 56.3202 30.3196 58.8895C30.9011 61.4588 31.9896 63.8862 33.5213 66.0293C36.0148 69.6267 39.5528 72.3715 43.657 73.8926C47.7612 75.4137 52.2335 75.6377 56.4691 74.5343C58.4063 74.0146 60.2491 73.2061 61.9396 72.1351L72.2086 65.5831C72.7266 65.2576 73.2778 65.0178 73.8623 64.8638C74.6895 64.6519 75.5504 64.6061 76.3953 64.7291C77.2402 64.8521 78.0524 65.1414 78.7847 65.5804C79.5171 66.0193 80.1552 66.5991 80.662 67.2863C81.1688 67.9734 81.5343 68.7543 81.7373 69.5836C81.9158 70.3553 81.9316 71.1586 81.7951 71.9408C81.6554 72.706 81.3584 73.4337 80.9228 74.0781C80.4872 74.7224 79.9225 75.2693 79.2646 75.6841L52.3478 92.8463C51.8393 93.1707 51.283 93.4134 50.6993 93.5656C49.4231 93.8953 48.0766 93.8265 46.8406 93.3685C45.6046 92.9105 44.5384 92.0853 43.7851 91.0036C42.962 89.8401 42.5771 88.4231 42.6983 87.0031L42.7876 86.0056L41.7901 85.7011C38.0067 84.559 34.4466 82.778 31.2638 80.4353L29.8831 79.4273L29.3791 80.9761C29.1124 81.7985 28.8967 82.6366 28.7333 83.4856C28.2729 86.0791 28.3348 88.7384 28.9154 91.3077C29.4959 93.877 30.5835 96.3045 32.1143 98.4481C34.6068 102.045 38.1437 104.791 42.2468 106.313" fill="#C3C3C3"/>
</svg>
