<svg width="126" height="126" viewBox="0 0 126 126" fill="none" xmlns="http://www.w3.org/2000/svg">
<g clip-path="url(#clip0_244_5)">
<path d="M22.8228 8.3999H4.20002C3.46102 8.39968 2.73504 8.59446 2.09538 8.96456C1.45573 9.33466 0.925053 9.86698 0.556936 10.5078C0.188819 11.1486 -0.00370519 11.8752 -0.0011965 12.6142C0.0013122 13.3532 0.198765 14.0784 0.571224 14.7167L59.3712 115.517C59.741 116.151 60.2706 116.678 60.9074 117.044C61.5441 117.409 62.2656 117.602 63 117.602C63.7344 117.602 64.4559 117.409 65.0927 117.044C65.7294 116.678 66.2591 116.151 66.6288 115.517L125.429 14.7167C125.801 14.0784 125.999 13.3532 126.001 12.6142C126.004 11.8752 125.811 11.1486 125.443 10.5078C125.075 9.86698 124.544 9.33466 123.905 8.96456C123.265 8.59446 122.539 8.39968 121.8 8.3999H103.177L63 75.3647L22.8228 8.3999Z" fill="#C3C3C3"/>
<path d="M93.3828 8.3999H68.796L63 20.0087L57.1956 8.3999H32.6172L63 59.0351L93.3828 8.3999Z" fill="#C3C3C3"/>
</g>
<defs>
<clipPath id="clip0_244_5">
<rect width="126" height="126" fill="white"/>
</clipPath>
</defs>
</svg>
