<svg width="132" height="18" viewBox="0 0 132 18" fill="none" xmlns="http://www.w3.org/2000/svg">
<g clip-path="url(#clip0_314_902)">
<path d="M5.90468 17.4833C4.1234 17.4833 2.69395 17.0022 1.61637 16.04C0.538792 15.056 0 13.7658 0 12.1694H3.00183C3.00183 12.9786 3.26573 13.6346 3.79353 14.1375C4.32132 14.6405 5.02505 14.892 5.90468 14.892H8.80759C9.64326 14.892 10.314 14.7389 10.8198 14.4327C11.3256 14.1047 11.5785 13.6783 11.5785 13.1535V12.2022C11.5785 11.8523 11.4246 11.5462 11.1167 11.2838C10.8308 10.9995 10.4569 10.8136 9.99511 10.7261L4.28833 9.74206C3.0788 9.52339 2.11118 9.07511 1.38546 8.39719C0.659742 7.69742 0.296885 6.88828 0.296885 5.96983V4.88739C0.296885 3.59717 0.813684 2.55845 1.84728 1.7712C2.88088 0.983954 4.26634 0.590332 6.00368 0.590332H8.77459C10.4239 0.590332 11.7435 1.03863 12.7331 1.93521C13.7447 2.8318 14.2504 4.0236 14.2504 5.51063H11.2486C11.2266 4.81086 10.9847 4.25321 10.5229 3.83772C10.0831 3.40036 9.50033 3.18168 8.77459 3.18168H6.03664C5.22296 3.18168 4.57424 3.3457 4.09041 3.67372C3.62859 4.00173 3.39768 4.43907 3.39768 4.98578V5.80584C3.39768 6.15573 3.55162 6.46186 3.8595 6.72429C4.16738 6.98671 4.56322 7.17261 5.04703 7.28192L10.8198 8.2988C11.9634 8.49558 12.887 8.93297 13.5907 9.61085C14.3165 10.2888 14.6793 11.076 14.6793 11.9726V13.2519C14.6793 14.5202 14.1405 15.548 13.0629 16.3353C11.9853 17.1007 10.5669 17.4833 8.80759 17.4833H5.90468Z" fill="#C3C3C3"/>
<path d="M23.232 17.4833C21.5826 17.4833 20.2631 17.0678 19.2735 16.2369C18.2839 15.384 17.7891 14.2578 17.7891 12.8583V11.7758C17.7891 10.3981 18.3059 9.29379 19.3395 8.4628C20.3731 7.60996 21.7255 7.18354 23.3969 7.18354H25.4751C26.1348 7.18354 26.8386 7.28192 27.5863 7.47874C28.334 7.67556 28.9717 7.94892 29.4995 8.2988V5.90423C29.4995 5.09514 29.2466 4.45004 28.7408 3.96893C28.235 3.46597 27.5753 3.21449 26.7616 3.21449H24.0567C23.221 3.21449 22.5502 3.4113 22.0444 3.80492C21.5386 4.19854 21.2857 4.71243 21.2857 5.34659H18.2509C18.2509 3.92519 18.7787 2.77713 19.8343 1.90241C20.9119 1.02769 22.3193 0.590332 24.0567 0.590332H26.7616C28.4989 0.590332 29.8954 1.08236 30.951 2.06642C32.0066 3.02861 32.5343 4.30788 32.5343 5.90423V17.2209H29.6645V15.0232C29.1587 15.7667 28.4989 16.3681 27.6852 16.8273C26.8715 17.2647 26.0469 17.4833 25.2112 17.4833H23.232ZM25.3761 14.9576C26.3438 14.9576 27.2014 14.6842 27.9491 14.1375C28.6969 13.569 29.2136 12.8145 29.4995 11.8742V10.8902C29.0817 10.5184 28.5099 10.2232 27.7842 10.0045C27.0585 9.78581 26.3108 9.67646 25.541 9.67646H23.4299C22.6602 9.67646 22.0334 9.87328 21.5496 10.2669C21.0658 10.6605 20.8239 11.1854 20.8239 11.8414V12.8254C20.8239 13.4815 21.0548 14.0063 21.5166 14.4C22.0004 14.7717 22.6382 14.9576 23.4299 14.9576H25.3761Z" fill="#C3C3C3"/>
<path d="M36.9688 0.852745H39.9046V3.11608C40.3884 2.37257 41.0262 1.7712 41.8179 1.31197C42.6315 0.830878 43.4343 0.590332 44.226 0.590332H46.4032C47.9863 0.590332 49.2621 1.11516 50.2294 2.16483C51.2194 3.21449 51.7142 4.59218 51.7142 6.29787V17.2209H48.6463V6.29787C48.6463 5.40127 48.4155 4.67964 47.9535 4.13294C47.4915 3.56437 46.887 3.28009 46.1392 3.28009H44.094C43.1484 3.28009 42.2907 3.64091 41.521 4.36256C40.7513 5.08421 40.2565 6.02451 40.0366 7.18354V17.2209H36.9688V0.852745Z" fill="#C3C3C3"/>
<path d="M61.9092 17.4833C59.9742 17.4833 58.4125 16.9038 57.2249 15.7448C56.0596 14.5858 55.4766 13.066 55.4766 11.1854V6.92111C55.4766 5.0186 56.0706 3.48784 57.2581 2.32883C58.4457 1.16983 60.0179 0.590332 61.9752 0.590332H64.7463C66.7036 0.590332 68.2758 1.16983 69.4633 2.32883C70.6509 3.48784 71.2444 5.0186 71.2444 6.92111V11.1854C71.2444 13.066 70.64 14.5858 69.4301 15.7448C68.243 16.9038 66.6703 17.4833 64.7131 17.4833H61.9092ZM64.6803 14.7936C65.7358 14.7936 66.5825 14.4546 67.2202 13.7767C67.8579 13.0988 68.177 12.1913 68.177 11.0542V7.0195C68.177 5.88237 67.8579 4.97485 67.2202 4.29695C66.6043 3.61905 65.7796 3.28009 64.7463 3.28009H61.9752C60.9415 3.28009 60.1057 3.61905 59.468 4.29695C58.8526 4.97485 58.5445 5.88237 58.5445 7.0195V11.0542C58.5445 12.1913 58.8526 13.0988 59.468 13.7767C60.0839 14.4546 60.9087 14.7936 61.9424 14.7936H64.6803Z" fill="#C3C3C3"/>
<path d="M80.2874 17.4833C78.5058 17.4833 77.0766 17.0022 75.9992 16.04C74.9213 15.056 74.3828 13.7658 74.3828 12.1694H77.3843C77.3843 12.9786 77.6483 13.6346 78.1763 14.1375C78.7038 14.6405 79.4076 14.892 80.2874 14.892H83.1901C84.0258 14.892 84.6967 14.7389 85.2024 14.4327C85.7082 14.1047 85.9612 13.6783 85.9612 13.1535V12.2022C85.9612 11.8523 85.8074 11.5462 85.4992 11.2838C85.2134 10.9995 84.8397 10.8136 84.3777 10.7261L78.6711 9.74206C77.4612 9.52339 76.4939 9.07511 75.7679 8.39719C75.0424 7.69742 74.6796 6.88828 74.6796 5.96983V4.88739C74.6796 3.59717 75.1962 2.55845 76.2299 1.7712C77.2637 0.983954 78.6488 0.590332 80.3862 0.590332H83.1573C84.8064 0.590332 86.126 1.03863 87.1156 1.93521C88.1274 2.8318 88.6331 4.0236 88.6331 5.51063H85.6312C85.6094 4.81086 85.3672 4.25321 84.9057 3.83772C84.4655 3.40036 83.8829 3.18168 83.1573 3.18168H80.4194C79.6056 3.18168 78.9569 3.3457 78.4731 3.67372C78.0111 4.00173 77.7803 4.43907 77.7803 4.98578V5.80584C77.7803 6.15573 77.9341 6.46186 78.2423 6.72429C78.55 6.98671 78.946 7.17261 79.4299 7.28192L85.2024 8.2988C86.3459 8.49558 87.2694 8.93297 87.9731 9.61085C88.6991 10.2888 89.0619 11.076 89.0619 11.9726V13.2519C89.0619 14.5202 88.523 15.548 87.4456 16.3353C86.3682 17.1007 84.9494 17.4833 83.1901 17.4833H80.2874Z" fill="#C3C3C3"/>
<path d="M99.2023 17.221C97.3988 17.221 96.0902 16.8274 95.2768 16.0401C94.4848 15.2529 94.0892 13.9846 94.0892 12.2351L94.056 5.96994H91.1533L91.1861 3.18179H94.122V0H97.1571V3.18179H101.445L101.412 5.96994H97.1239L97.1571 12.1695C97.1571 13.0224 97.3219 13.6347 97.6519 14.0064C98.0038 14.3782 98.5645 14.5641 99.3343 14.5641H101.445V17.221H99.2023Z" fill="#C3C3C3"/>
<path d="M105.392 0.852712H108.328V3.24725C108.767 2.52561 109.405 1.93518 110.241 1.47595C111.098 1.01672 111.989 0.787109 112.913 0.787109H114.628V3.50967H112.913C111.571 3.50967 110.494 3.92516 109.68 4.75614C108.866 5.56528 108.46 6.63679 108.46 7.97074V17.2209H105.392V0.852712Z" fill="#C3C3C3"/>
<path d="M122.665 17.4833C120.73 17.4833 119.168 16.9038 117.981 15.7448C116.815 14.5858 116.232 13.066 116.232 11.1854V6.92111C116.232 5.0186 116.826 3.48784 118.014 2.32883C119.201 1.16983 120.774 0.590332 122.731 0.590332H125.502C127.459 0.590332 129.032 1.16983 130.219 2.32883C131.407 3.48784 132 5.0186 132 6.92111V11.1854C132 13.066 131.395 14.5858 130.186 15.7448C128.998 16.9038 127.426 17.4833 125.469 17.4833H122.665ZM125.436 14.7936C126.491 14.7936 127.338 14.4546 127.976 13.7767C128.614 13.0988 128.932 12.1913 128.932 11.0542V7.0195C128.932 5.88237 128.614 4.97485 127.976 4.29695C127.36 3.61905 126.535 3.28009 125.502 3.28009H122.731C121.697 3.28009 120.862 3.61905 120.224 4.29695C119.608 4.97485 119.3 5.88237 119.3 7.0195V11.0542C119.3 12.1913 119.608 13.0988 120.224 13.7767C120.84 14.4546 121.665 14.7936 122.698 14.7936H125.436Z" fill="#C3C3C3"/>
</g>
<defs>
<clipPath id="clip0_314_902">
<rect width="132" height="17.4834" fill="white"/>
</clipPath>
</defs>
</svg>
