<svg width="132" height="32" viewBox="0 0 132 32" fill="none" xmlns="http://www.w3.org/2000/svg">
<path fill-rule="evenodd" clip-rule="evenodd" d="M10.5501 24.0812C16.8872 24.0812 20.9774 19.5526 20.9774 13.9667C20.9774 8.38075 16.4148 4.12598 10.6557 4.12598C4.89722 4.12598 0.333984 8.22819 0.333984 14.104C0.333984 19.6899 4.79094 24.0812 10.5501 24.0812ZM16.7444 13.7592C16.7444 17.1795 14.3102 19.9526 10.895 19.9526C7.45674 19.9526 5.04648 17.1795 5.04648 13.7592C5.04648 10.3397 7.30042 7.5666 10.895 7.5666C14.5624 7.5666 16.7444 10.3397 16.7444 13.7592Z" fill="#C3C3C3"/>
<path fill-rule="evenodd" clip-rule="evenodd" d="M60.6791 24.0812C67.0155 24.0812 71.1063 19.5526 71.1063 13.9667C71.1063 8.38075 66.5438 4.12598 60.7846 4.12598C55.0262 4.12598 50.4629 8.22819 50.4629 14.104C50.4629 19.6899 54.9199 24.0812 60.6791 24.0812ZM66.289 13.7592C66.289 17.1795 63.8553 19.9526 60.44 19.9526C57.0007 19.9526 54.591 17.1795 54.591 13.7592C54.591 10.3397 56.8444 7.5666 60.44 7.5666C64.1076 7.5666 66.289 10.3397 66.289 13.7592Z" fill="#C3C3C3"/>
<path d="M93.123 15.9671C93.123 15.9671 93.1238 8.33812 93.123 6.36471C93.4814 3.60358 97.3278 5.08434 97.3278 5.08434V15.3776V15.374C97.3278 18.5854 99.5014 20.1551 102.182 20.1551C104.863 20.1551 107.037 18.6393 107.037 15.374C107.037 15.374 107.049 8.34396 107.048 6.37054C107.405 3.6094 111.253 5.0909 111.253 5.0909V11.7084C111.799 19.8651 119.513 20.4743 119.513 20.4743C127.193 21.5499 126.518 18.3603 126.518 18.3603C126.319 16.7548 125.135 16.3912 123.092 16.126C121.823 15.962 120.721 15.8491 120.721 15.8491C112.489 15.3229 113.299 9.83052 113.299 9.83052C113.403 5.18491 118.319 4.47732 118.319 4.47732C122.661 3.6954 125.728 4.46274 125.728 4.46274C132.487 5.88521 129.159 9.12436 128.601 9.30876C128.601 9.30876 126.801 7.64216 122.59 7.40241C117.404 7.0672 117.495 9.5434 117.495 9.5434C117.326 11.3499 119.613 11.68 119.613 11.68L125.172 12.4664C131.737 13.3925 130.937 18.1037 130.937 18.1037C130.506 23.9948 123.565 24.0377 123.565 24.0377C114.071 24.5952 110.497 19.61 110.497 19.61C109.167 22.2866 106.511 24.0764 102.097 24.0764C96.8342 24.0764 93.123 21.0922 93.123 15.7383" fill="#C3C3C3"/>
<path d="M31.4104 5.12229C23.8119 5.67003 22.0783 12.8029 22.2629 14.8766C22.1576 18.0093 24.3275 24.7118 32.7206 24.7155C33.8261 24.6944 34.8392 24.5945 35.7637 24.4213L35.763 20.6198C34.959 20.7633 33.9876 20.8529 32.8158 20.8842C28.8987 20.9841 26.6726 17.7369 26.6877 14.8759C26.6877 11.5567 29.3753 8.83262 32.8158 8.86686L39.6044 8.86542L39.6217 18.2541C39.6217 18.2541 39.1321 26.2086 49.0864 24.5385V20.7502C43.5663 21.9521 43.8647 18.4435 43.8647 18.4435V8.87198H49.0864V5.11647H43.8647V0.685059H39.6217V5.11647L31.4104 5.12229Z" fill="#C3C3C3"/>
<path fill-rule="evenodd" clip-rule="evenodd" d="M71.792 30.9162C71.792 30.9162 75.6204 32.3716 75.9761 29.6584C75.9754 27.7188 75.9947 21.1708 75.9947 21.1708C77.4431 23.0295 79.5406 23.8747 81.687 23.9928C87.7102 24.2478 91.7854 19.9316 91.747 14.1256C91.711 8.6462 87.5558 4.34362 81.7702 4.47255C75.2174 4.61795 72.0344 8.94564 71.792 14.2603V30.9162ZM87.6182 14.1034C87.6182 17.5238 85.1838 20.2964 81.7694 20.2964C78.3299 20.2964 75.9202 17.5238 75.9202 14.1034C75.9202 10.6829 78.1735 7.91036 81.7694 7.91036C85.4366 7.91036 87.6182 10.6829 87.6182 14.1034Z" fill="#C3C3C3"/>
</svg>
