<svg width="128" height="32" viewBox="0 0 128 32" fill="none" xmlns="http://www.w3.org/2000/svg">
<path d="M0 0.663415C0 0.297021 0.298843 0 0.667485 0H7.18528C7.55392 0 7.85276 0.297021 7.85276 0.663415V30.5561C7.85276 30.9225 7.55392 31.2195 7.18528 31.2195H0.667485C0.298843 31.2195 0 30.9225 0 30.5561V0.663415Z" fill="#C3C3C3"/>
<path fill-rule="evenodd" clip-rule="evenodd" d="M11.7793 7.14146C11.7793 7.50786 12.0781 7.80488 12.4467 7.80488H23.0676C23.3387 7.80488 23.5584 8.02326 23.5584 8.29268V12.9951C23.5584 13.3615 23.8573 13.6585 24.2259 13.6585H30.7437C31.1123 13.6585 31.4112 13.3615 31.4112 12.9951V0.663415C31.4112 0.297021 31.1123 0 30.7437 0H24.8541H24.2259H12.4467C12.0781 0 11.7793 0.297021 11.7793 0.663415V7.14146Z" fill="#C3C3C3"/>
<path fill-rule="evenodd" clip-rule="evenodd" d="M24.2259 17.561C23.8573 17.561 23.5584 17.858 23.5584 18.2244V22.9268C23.5584 23.1963 23.3387 23.4146 23.0676 23.4146H12.4467C12.0781 23.4146 11.7793 23.7117 11.7793 24.078V30.5561C11.7793 30.9225 12.0781 31.2195 12.4467 31.2195H24.2248H24.2259H24.8541H30.7437C31.1123 31.2195 31.4112 30.9225 31.4112 30.5561V18.2244C31.4112 17.858 31.1123 17.561 30.7437 17.561H24.2259Z" fill="#C3C3C3"/>
<path fill-rule="evenodd" clip-rule="evenodd" d="M44.9874 8.13458C44.9874 6.6054 43.74 5.36572 42.2014 5.36572H42.0496C40.511 5.36572 39.2637 6.6054 39.2637 8.13458C39.2637 9.66379 40.511 10.9035 42.0496 10.9035H42.2014C43.74 10.9035 44.9874 9.66379 44.9874 8.13458ZM57.3009 24.8783C65.8902 24.8783 66.7642 21.0627 66.7642 19.2015C66.7642 19.0198 66.616 18.8725 66.4333 18.8725H61.4464C61.2118 18.8725 61.0141 19.0342 60.9292 19.2516C60.6358 20.0043 59.7213 21.3294 56.6018 21.3294C54.3324 21.3294 52.2571 20.2353 52.2571 17.7558C52.2571 15.3034 54.3779 14.2813 56.6018 14.2813C59.7561 14.2813 60.6464 15.5672 60.9312 16.3088C61.0148 16.5266 61.2118 16.6886 61.4464 16.6886H66.4019C66.602 16.6886 66.7642 16.5273 66.7642 16.3285C66.7642 14.5416 65.7155 10.7821 57.3259 10.7821H55.9026C48.2371 10.7821 46.5642 14.5295 46.5642 17.5076V18.0039C46.5642 20.982 48.2621 24.8783 55.9276 24.8783H57.3009ZM80.263 18.5747C80.263 20.163 78.3401 21.7513 75.3687 21.7513C73.4711 21.7513 72.9217 20.9572 72.9217 20.2375V20.2127C72.9217 19.4433 73.521 19.1951 74.9442 18.9718L80.263 18.1528V18.5747ZM80.4122 22.6696C80.6124 23.9352 81.4613 24.506 82.5348 24.506H86.5475C86.8271 24.506 87.0541 24.2806 87.0541 24.0025V21.3861C87.0541 21.1081 86.8271 20.8827 86.5475 20.8827H86.33C85.756 20.8827 85.6311 20.6097 85.6311 20.2127V15.1003C85.6311 13.1645 85.1317 10.7821 77.3413 10.7821H75.968C68.4772 10.7821 67.9529 13.2939 67.9529 15.0559C67.9529 15.2175 68.0847 15.3485 68.2472 15.3485H72.6924C72.94 15.3485 73.1306 15.1625 73.2315 14.9378C73.4487 14.4543 74.1334 13.8594 76.6421 13.8594H76.767C80.0376 13.8594 80.263 14.4551 80.263 14.9514C80.263 15.3732 80.0376 15.5718 79.4141 15.6463L73.2714 16.217C69.2513 16.5893 67.6284 17.7558 67.6284 20.2127V20.3863C67.6284 22.6696 69.3512 24.7542 73.8706 24.7542H74.1952C78.1403 24.7542 79.8381 23.3892 80.4122 22.6696ZM88.879 24.506C88.5995 24.506 88.3725 24.2806 88.3725 24.0025V11.6578C88.3725 11.3797 88.5995 11.1544 88.879 11.1544H93.3842C93.6645 11.1544 93.8907 11.3797 93.8907 11.6578V13.4375C94.5652 12.7675 96.563 10.8566 100.558 10.8566H100.733C105.427 10.8566 107.274 13.4872 107.274 16.0682V24.0025C107.274 24.2806 107.047 24.506 106.768 24.506H102.163C101.883 24.506 101.656 24.2806 101.656 24.0025V17.9046C101.656 15.8448 100.533 14.5791 98.0605 14.5791C95.5641 14.5791 93.9409 16.0185 93.9409 18.2024V24.0025C93.9409 24.2806 93.714 24.506 93.4344 24.506H88.879ZM118.476 24.8783C125.892 24.8783 127.34 22.744 127.34 20.2871V20.1382C127.34 17.4579 126.042 16.0682 119.85 15.9441L117.453 15.8944C115.13 15.82 114.632 15.4229 114.632 14.8273V14.7776C114.632 14.1076 115.155 13.7849 117.827 13.7849H117.852C120.115 13.7849 120.811 14.2803 121.049 14.7366C121.164 14.9579 121.358 15.1499 121.61 15.1499H126.437C126.66 15.1499 126.841 14.9702 126.841 14.7485C126.841 12.6639 125.218 10.7821 118.427 10.7821H117.428C110.037 10.7821 108.938 12.8915 108.938 14.9514V15.1003C108.938 17.0608 110.337 19.1455 116.179 19.2696L118.576 19.3192C121.198 19.3937 121.522 19.7907 121.522 20.4856V20.5352C121.522 21.1805 121.148 21.8009 118.052 21.8009H118.002C115.57 21.8009 114.848 21.0624 114.639 20.4834C114.544 20.2217 114.329 19.9893 114.05 19.9893H109.297C109.03 19.9893 108.813 20.2045 108.813 20.4701C108.813 22.1825 109.612 24.8783 117.453 24.8783H118.476ZM44.3253 12.5252C44.605 12.5252 44.8318 12.7506 44.8318 13.0286V24.0017C44.8318 24.2798 44.605 24.5052 44.3253 24.5052H39.7702C39.4905 24.5052 39.2637 24.2798 39.2637 24.0017V13.0286C39.2637 12.7506 39.4905 12.5252 39.7702 12.5252H44.3253Z" fill="#C3C3C3"/>
</svg>
