<svg width="121" height="36" viewBox="0 0 121 36" fill="none" xmlns="http://www.w3.org/2000/svg">
<path d="M96.4632 29.8892H23.9785L29.76 35.5192L96.4632 29.8892Z" fill="#C3C3C3"/>
<path d="M107.94 26.3702V14.6663C107.94 12.4718 109.445 10.643 111.593 10.643C113.742 10.643 115.246 12.4718 115.246 14.6663V26.3702H119.686V14.6663C119.686 9.83836 116.463 5.96143 111.737 5.96143C109.588 5.96143 107.94 7.20497 107.94 7.20497V6.40032H103.5V26.2971H107.94V26.3702Z" fill="#C3C3C3"/>
<path fill-rule="evenodd" clip-rule="evenodd" d="M84.498 16.5177C84.498 10.6121 88.1987 5.96143 93.422 5.96143C98.5004 5.96143 103.071 10.7597 101.91 17.8465H88.9964C89.5765 22.4971 94.7278 24.7856 97.7747 20.2087L101.765 22.5709C99.2253 26.262 96.2512 27.0739 93.8572 27.0739C89.1412 27.0739 84.498 22.7186 84.498 16.5177ZM97.166 13.703H89.4251C90.3317 9.15673 96.3298 8.86807 97.166 13.703Z" fill="#C3C3C3"/>
<path d="M83.015 21.8904C82.5814 22.1825 82.0757 22.4016 81.4975 22.4016C80.7747 22.4016 79.4015 21.8175 79.4015 19.9922V11.4498H83.2318V6.70404H79.4015V1.73926H74.9203V6.70404H72.5352V11.4498H74.9203V19.9922C74.9203 24.4459 78.2451 27.0743 81.5698 27.0743C82.7982 27.0743 84.5336 26.6362 85.9065 25.8331L83.015 21.8904Z" fill="#C3C3C3"/>
<path d="M65.9841 6.66553V18.3695C65.9841 20.564 64.48 22.3927 62.3314 22.3927C60.1828 22.3927 58.6788 20.564 58.6788 18.3695V6.66553H54.2383V18.3695C54.2383 23.1974 57.4613 27.0743 62.1882 27.0743C64.3368 27.0743 65.9841 25.8308 65.9841 25.8308V26.5623H70.4245V6.66553H65.9841Z" fill="#C3C3C3"/>
<path d="M45.963 15.9691L53.7014 6.78744H47.4231L41.9479 13.602V0.331543H37.3486V26.3703H41.9479V18.3363L48.6642 26.3703H54.9424L45.963 15.9691Z" fill="#C3C3C3"/>
<path fill-rule="evenodd" clip-rule="evenodd" d="M30.7667 7.6101V6.72427H35.2372V26.8033H30.7667V25.9174C29.4688 26.8033 28.243 27.32 26.5846 27.32C21.4651 27.32 17.6436 22.5955 17.6436 16.7638C17.6436 10.932 21.5372 6.20752 26.5846 6.20752C28.243 6.20752 29.3967 6.72427 30.7667 7.6101ZM21.8655 16.7634C21.8655 19.9074 23.6392 22.3934 26.1225 22.3934C28.6056 22.3934 30.3794 19.9074 30.3084 16.7634C30.3084 13.6193 28.6056 11.1334 26.1225 11.1334C23.6392 11.1334 21.8655 13.6193 21.8655 16.7634Z" fill="#C3C3C3"/>
<path fill-rule="evenodd" clip-rule="evenodd" d="M5.07583 18.9595V26.5439H0.332031V1.98486H8.06808C12.7389 1.98486 16.6069 5.74096 16.6069 10.436C16.6069 13.3254 15.2203 15.8535 13.0308 17.3704L20.0371 26.5439H14.1256L8.35999 18.9595H5.07583ZM7.94814 6.91073H4.83683V14.652H7.94814C10.0964 14.652 11.8743 12.8993 11.8743 10.7814C11.8743 8.66345 10.0964 6.91073 7.94814 6.91073Z" fill="#C3C3C3"/>
</svg>
