<svg width="114" height="38" viewBox="0 0 114 38" fill="none" xmlns="http://www.w3.org/2000/svg">
<path d="M29.8533 25.4739C29.8533 26.1635 29.4887 26.7969 28.8998 27.1488L21.6504 31.3428V35.6354L31.9145 29.6821C32.9382 29.0909 33.5552 28.0072 33.5552 26.8251V12.6665L29.8533 14.8198V25.4739Z" fill="#C3C3C3"/>
<path d="M31.9146 8.37416L18.4533 0.577122C17.4297 -0.0139887 16.1817 -0.0139887 15.1721 0.577122L1.7109 8.37416C0.687286 8.96527 0.0703125 10.049 0.0703125 11.2312V26.8253C0.0703125 28.0074 0.701308 29.0912 1.7109 29.6823L15.1721 37.4793C15.3404 37.5779 15.5227 37.6623 15.719 37.7327V33.4964L4.73969 27.1349C4.15075 26.7971 3.78618 26.1497 3.78618 25.4601V12.5823C3.78618 11.8927 4.15075 11.2593 4.73969 10.9075L15.8452 4.46156C16.4342 4.12379 17.1773 4.12379 17.7662 4.46156L27.9043 10.3445L17.5279 16.3542C17.0931 16.6074 16.8268 17.072 16.8268 17.5786V24.9393H16.8128V33.806V37.8874C17.3736 37.8874 17.9345 37.7327 18.4393 37.4512L20.5146 36.2409V31.9483V31.5683C20.5146 31.526 20.5146 31.4979 20.5146 31.4556V29.5416V27.7823L25.5345 24.883C25.6467 24.8267 25.7028 24.7141 25.7028 24.5874V20.8297C25.7028 20.6749 25.5345 20.5904 25.4084 20.6609L20.5146 23.4897V19.7037C20.5146 19.1971 20.781 18.7327 21.2157 18.4793L30.3581 13.1874C30.4002 13.1593 30.4423 13.1312 30.4843 13.103L33.5272 11.3438V11.203C33.5552 10.063 32.9382 8.96527 31.9146 8.37416Z" fill="#C3C3C3"/>
<path d="M41.8988 18.198H40.9733C40.8893 18.198 40.7911 18.1699 40.693 18.1134C40.5948 18.0572 40.5527 17.9587 40.5527 17.832V15.8053C40.5527 15.6927 40.5948 15.5943 40.693 15.538C40.7911 15.4816 40.8753 15.4394 40.9733 15.4394H41.8988V14.5527C41.8988 13.7506 42.011 13.1031 42.2353 12.6246C42.4597 12.1461 42.7683 11.7661 43.1749 11.5128C43.5674 11.2594 44.0442 11.1046 44.5911 11.0342C45.1379 10.9639 45.7269 10.9498 46.3578 10.978C46.5541 10.992 46.6804 11.0342 46.7645 11.0905C46.8486 11.1468 46.8766 11.2735 46.8766 11.4705V13.1032C46.8766 13.3002 46.8206 13.4269 46.7224 13.4832C46.6243 13.5535 46.4841 13.5816 46.3018 13.5816C46.0915 13.5816 45.9092 13.5957 45.7409 13.6239C45.5727 13.652 45.4324 13.7083 45.3202 13.7927C45.2081 13.8772 45.1239 14.0039 45.0538 14.1727C44.9977 14.3416 44.9556 14.5669 44.9556 14.8483V15.4253H46.428C46.5121 15.4253 46.6103 15.4676 46.6944 15.5239C46.7786 15.5943 46.8346 15.6787 46.8346 15.7772V17.8039C46.8346 17.9306 46.7926 18.029 46.6944 18.0853C46.6103 18.1416 46.5121 18.1699 46.428 18.1699H44.9556V27.712C44.9556 27.9794 44.8435 28.1202 44.6191 28.1202H42.2213C41.997 28.1202 41.8707 27.9794 41.8707 27.712V18.198H41.8988Z" fill="#C3C3C3"/>
<path d="M48.9658 12.16C48.9658 11.963 49.022 11.8082 49.1201 11.6815C49.2183 11.5548 49.4006 11.4985 49.6669 11.4985H51.6721C51.9105 11.4985 52.0787 11.5548 52.1769 11.6674C52.275 11.78 52.3172 11.9489 52.3172 12.16V13.877C52.3172 14.1163 52.261 14.2852 52.1489 14.3556C52.0367 14.44 51.8824 14.4823 51.6721 14.4823H49.6809C49.4706 14.4823 49.2883 14.44 49.1621 14.3556C49.036 14.2712 48.9658 14.1163 48.9658 13.877V12.16Z" fill="#C3C3C3"/>
<path d="M49.0918 15.8331C49.0918 15.7206 49.134 15.622 49.218 15.5516C49.3022 15.4813 49.4003 15.4531 49.5125 15.4531H51.7701C51.8963 15.4531 52.0084 15.4953 52.0926 15.5657C52.1907 15.6361 52.2327 15.7346 52.2327 15.8331V27.7538C52.2327 27.8806 52.1907 27.9931 52.1066 28.0634C52.0224 28.1338 51.9103 28.162 51.7701 28.162H49.5125C49.232 28.162 49.0918 28.0213 49.0918 27.7538V15.8331Z" fill="#C3C3C3"/>
<path d="M54.3083 19.5486C54.3083 18.7604 54.4345 18.099 54.701 17.5501C54.9674 17.0011 55.3039 16.5508 55.7246 16.199C56.1452 15.8471 56.608 15.5938 57.1268 15.439C57.6456 15.2841 58.1505 15.1997 58.6412 15.1997C58.9216 15.1997 59.1741 15.1997 59.3844 15.2138C59.6087 15.2279 59.805 15.256 59.9873 15.2983C60.2257 15.3686 60.3518 15.5234 60.3518 15.7767V17.5641C60.3518 17.733 60.2958 17.8457 60.1696 17.9301C60.0434 18.0146 59.9172 18.0427 59.763 18.0427H59.1319C58.6131 18.0427 58.1925 18.2116 57.884 18.5634C57.5755 18.9011 57.4212 19.3797 57.4212 19.9708V27.5708C57.4212 27.782 57.3511 27.9367 57.2249 28.0211C57.0988 28.1057 56.9726 28.1479 56.8604 28.1479H54.6588C54.5467 28.1479 54.4626 28.1057 54.3925 28.0353C54.3224 27.9649 54.2803 27.8523 54.2803 27.7116V19.5486H54.3083Z" fill="#C3C3C3"/>
<path d="M61.6556 24.4469C61.6556 24.2076 61.8519 24.0809 62.2586 24.0809H64.2917C64.5022 24.0809 64.6143 24.2077 64.6143 24.4609V24.7002C64.6143 25.0099 64.7265 25.2632 64.9508 25.4321C65.1751 25.6009 65.4416 25.6995 65.7501 25.6995C66.0586 25.6995 66.325 25.6009 66.5493 25.4181C66.7737 25.2351 66.8858 24.9818 66.8858 24.6581C66.8858 24.4328 66.8018 24.2358 66.6195 24.0528C66.4372 23.8699 66.2128 23.7009 65.9464 23.5321C65.6799 23.3632 65.3715 23.1944 65.035 23.0254C64.6985 22.8565 64.3619 22.6595 64.0394 22.4484C63.7029 22.2514 63.4084 22.0262 63.128 21.8009C62.8475 21.5618 62.6092 21.3084 62.4128 21.0128C62.2165 20.7172 62.0482 20.4076 61.9361 20.0699C61.8239 19.7321 61.7678 19.3381 61.7678 18.9158C61.7678 18.3951 61.8659 17.9025 62.0622 17.4521C62.2585 17.0018 62.539 16.6076 62.9036 16.2839C63.2681 15.9462 63.6889 15.6928 64.1796 15.4958C64.6703 15.2988 65.2033 15.2144 65.7922 15.2144C66.4372 15.2144 67.0261 15.2988 67.5309 15.4818C68.0357 15.6647 68.4563 15.9181 68.7928 16.2558C69.1294 16.5935 69.3818 16.9876 69.5501 17.4521C69.7184 17.9165 69.8165 18.4232 69.8165 18.9862V19.1972C69.8165 19.3239 69.7744 19.4084 69.7044 19.4365C69.6342 19.4647 69.508 19.4788 69.3398 19.4788H67.3906C67.2504 19.4788 67.1523 19.4506 67.0963 19.3802C67.0401 19.3099 67.0121 19.2254 67.0121 19.1128V18.9439C67.0121 18.6344 66.9139 18.3951 66.7036 18.1981C66.5073 18.0009 66.2409 17.9165 65.9464 17.9165C65.6239 17.9165 65.3715 18.0151 65.1751 18.2262C64.9788 18.4372 64.8948 18.6906 64.8948 18.9862C64.8948 19.1832 64.9368 19.3521 65.0069 19.4788C65.077 19.6054 65.2033 19.7321 65.3715 19.8447C65.5398 19.9714 65.7641 20.0981 66.0445 20.2388C66.311 20.3795 66.6475 20.5625 67.0401 20.7735C67.4889 20.9988 67.8955 21.2662 68.246 21.5476C68.6106 21.8291 68.9191 22.1247 69.1856 22.4484C69.4519 22.7721 69.6482 23.1239 69.8025 23.4899C69.9427 23.8558 70.0128 24.2639 70.0128 24.6862C70.0128 25.2351 69.9147 25.7277 69.7184 26.1921C69.5221 26.6425 69.2416 27.0365 68.877 27.3602C68.5125 27.6839 68.0777 27.9372 67.5589 28.1344C67.0541 28.3172 66.4792 28.4158 65.8622 28.4158C65.0069 28.4158 64.3058 28.3172 63.7589 28.1062C63.2121 27.8951 62.7915 27.6136 62.4689 27.2618C62.1604 26.9099 61.9361 26.5018 61.8239 26.0514C61.6977 25.6009 61.6416 25.1365 61.6416 24.6439V24.4469H61.6556Z" fill="#C3C3C3"/>
<path d="M75.4111 15.4252H76.659C76.8835 15.4252 77.0096 15.5799 77.0096 15.8896V17.7473C77.0096 17.8881 76.9675 18.0006 76.8975 18.0852C76.8273 18.1696 76.7292 18.2118 76.617 18.2118H75.4111V24.2636C75.4111 24.6155 75.4953 24.8829 75.6636 25.0659C75.8318 25.2489 76.1402 25.3473 76.589 25.3473H76.7993C76.8835 25.3473 76.9535 25.3615 77.0096 25.4036C77.0658 25.4318 77.0938 25.474 77.1218 25.5162C77.1498 25.5585 77.1638 25.6148 77.1638 25.6711C77.1638 25.7273 77.1638 25.7696 77.1638 25.8118V27.7681C77.1638 27.8103 77.1638 27.8525 77.1498 27.9089C77.1358 27.9652 77.1078 28.0073 77.0657 28.0355C77.0236 28.0778 76.9535 28.1059 76.8553 28.134C76.7712 28.1622 76.631 28.1762 76.4768 28.1762H75.6916C75.2148 28.1762 74.766 28.1199 74.3454 28.0073C73.9248 27.8948 73.5601 27.6978 73.2517 27.4162C72.9432 27.1348 72.6908 26.7548 72.5225 26.2762C72.3402 25.7978 72.2561 25.1925 72.2561 24.4748V18.2399H71.527C71.4568 18.2399 71.3868 18.1978 71.2886 18.1273C71.2045 18.0429 71.1484 17.9303 71.1484 17.7896V15.9459C71.1484 15.777 71.1905 15.6643 71.2746 15.5799C71.3587 15.4955 71.4428 15.4673 71.513 15.4673H72.2421V13.5673C72.2421 13.4266 72.2701 13.314 72.3122 13.2436C72.3542 13.1733 72.4524 13.117 72.5927 13.0748L74.9063 12.3852C75.0465 12.357 75.1587 12.3711 75.2568 12.4415C75.341 12.5118 75.3971 12.6243 75.3971 12.7792V15.4252H75.4111Z" fill="#C3C3C3"/>
<path d="M78.917 11.4003C78.917 11.1188 79.0572 10.978 79.3236 10.978H81.6513C81.9177 10.978 82.0439 11.1188 82.0439 11.4003V15.5662C82.5768 15.341 83.0675 15.2143 83.5443 15.2143C84.0912 15.2143 84.61 15.2988 85.0728 15.4818C85.5494 15.6648 85.9421 15.9181 86.2927 16.2558C86.6292 16.5936 86.9096 16.9876 87.0919 17.4521C87.2882 17.9165 87.3864 18.4232 87.3864 18.9862V24.6299C87.3864 25.1929 87.2741 25.6995 87.0498 26.1639C86.8255 26.6283 86.531 27.0225 86.1384 27.3602C85.7598 27.698 85.3111 27.9513 84.7923 28.1343C84.2734 28.3173 83.7266 28.4018 83.1376 28.4018C82.5487 28.4018 82.0019 28.3173 81.4831 28.1343C80.9642 27.9513 80.5155 27.698 80.1369 27.3602C79.7583 27.0225 79.4498 26.6283 79.2395 26.1639C79.0152 25.6995 78.917 25.1929 78.917 24.6299V11.4003ZM82.0579 24.5313C82.0579 24.6721 82.086 24.8129 82.1421 24.9395C82.1982 25.0662 82.2682 25.1929 82.3664 25.2913C82.4646 25.3899 82.5768 25.4743 82.717 25.5448C82.8572 25.601 82.9975 25.6432 83.1658 25.6432C83.5023 25.6432 83.7686 25.5306 83.9649 25.3055C84.1612 25.0802 84.2594 24.8269 84.2594 24.5455V19.0848C84.2594 18.8032 84.1612 18.5499 83.9649 18.3248C83.7686 18.0995 83.5023 17.9869 83.1658 17.9869C82.9975 17.9869 82.8432 18.0151 82.703 18.0855C82.5627 18.1418 82.4505 18.2262 82.3524 18.3388C82.2542 18.4373 82.1842 18.5639 82.1281 18.6906C82.0719 18.8173 82.0439 18.9581 82.0439 19.0848V24.5313H82.0579Z" fill="#C3C3C3"/>
<path d="M89.1807 11.4003C89.1807 11.1188 89.3209 10.978 89.6014 10.978H91.915C92.1814 10.978 92.3216 11.1188 92.3216 11.4003V24.2639C92.3216 24.6158 92.4058 24.8832 92.5741 25.0662C92.7423 25.2492 93.0507 25.3476 93.4995 25.3476H93.7098C93.794 25.3476 93.8781 25.3618 93.9202 25.4039C93.9763 25.4321 94.0183 25.4743 94.0323 25.5165C94.0603 25.5588 94.0743 25.6151 94.0743 25.6713C94.0743 25.7276 94.0743 25.7699 94.0743 25.8121V27.7684C94.0743 27.8106 94.0744 27.8529 94.0603 27.9092C94.0463 27.9655 94.0183 28.0076 93.9763 28.0358C93.9342 28.0781 93.864 28.1062 93.766 28.1343C93.6818 28.1625 93.5415 28.1765 93.3873 28.1765H92.6021C92.1253 28.1765 91.6907 28.1202 91.27 28.0076C90.8493 27.8951 90.4848 27.698 90.1763 27.4165C89.8678 27.1351 89.6154 26.7551 89.4471 26.2765C89.2649 25.798 89.1807 25.1929 89.1807 24.4751V11.4003Z" fill="#C3C3C3"/>
<path d="M95.2666 18.9716C95.2666 18.4508 95.3787 17.9583 95.5891 17.4938C95.8134 17.0293 96.1078 16.6353 96.4865 16.2974C96.8651 15.9597 97.3137 15.6923 97.8185 15.4953C98.3233 15.2983 98.8702 15.1997 99.4592 15.1997C100.048 15.1997 100.609 15.2841 101.128 15.4671C101.647 15.6501 102.095 15.9034 102.488 16.2411C102.867 16.579 103.175 16.973 103.399 17.4374C103.624 17.902 103.736 18.4086 103.736 18.9716V24.6153C103.736 25.1783 103.624 25.6849 103.399 26.1493C103.175 26.6138 102.881 27.0079 102.488 27.3457C102.109 27.6834 101.661 27.9367 101.142 28.1197C100.623 28.3027 100.076 28.3871 99.4872 28.3871C98.8983 28.3871 98.3514 28.3027 97.8325 28.1197C97.3137 27.9367 96.8651 27.6834 96.4865 27.3457C96.1078 27.0079 95.7994 26.6138 95.5891 26.1493C95.3647 25.6849 95.2666 25.1783 95.2666 24.6153V18.9716ZM98.3935 24.5308C98.3935 24.6716 98.4215 24.8123 98.4776 24.939C98.5338 25.0657 98.6038 25.1923 98.702 25.2908C98.8001 25.3893 98.9123 25.4738 99.0526 25.5441C99.1927 25.6004 99.333 25.6427 99.5012 25.6427C99.8378 25.6427 100.104 25.5301 100.301 25.3049C100.497 25.0797 100.595 24.8264 100.595 24.5449V19.0841C100.595 18.8027 100.497 18.5493 100.301 18.3241C100.104 18.099 99.8378 17.9864 99.5012 17.9864C99.333 17.9864 99.1787 18.0146 99.0385 18.0849C98.8983 18.1411 98.7861 18.2257 98.6879 18.3383C98.5898 18.4367 98.5196 18.5634 98.4636 18.6901C98.4075 18.8167 98.3795 18.9574 98.3795 19.0841V24.5308H98.3935Z" fill="#C3C3C3"/>
<path d="M107.353 21.646L104.984 15.9742C104.914 15.8195 104.9 15.6927 104.928 15.5942C104.956 15.4957 105.054 15.4395 105.194 15.4395H107.704C107.858 15.4395 107.97 15.4816 108.041 15.5379C108.111 15.6083 108.167 15.6927 108.195 15.8053L109.303 19.0565L109.415 19.7039L109.527 19.0423L110.663 15.8053C110.677 15.6927 110.719 15.6083 110.789 15.5379C110.859 15.4676 110.971 15.4395 111.111 15.4395H113.621C113.776 15.4395 113.86 15.4957 113.902 15.5942C113.944 15.6927 113.93 15.8195 113.86 15.9742L111.49 21.646L113.86 27.346C113.888 27.4446 113.916 27.5432 113.944 27.6416C113.972 27.7402 113.972 27.8246 113.958 27.909C113.944 27.9935 113.916 28.0498 113.846 28.092C113.79 28.1342 113.705 28.1623 113.579 28.1623H111.308C111.181 28.1623 111.083 28.1342 110.999 28.0639C110.915 27.9935 110.859 27.909 110.817 27.7965L109.555 24.5032L109.401 23.8135L109.246 24.5032L107.984 27.7823C107.956 27.895 107.886 27.9795 107.802 28.0498C107.718 28.1202 107.606 28.1483 107.494 28.1483H105.222C105.11 28.1483 105.026 28.1202 104.956 28.0779C104.9 28.0216 104.858 27.9653 104.844 27.895C104.83 27.8246 104.83 27.7402 104.844 27.6416C104.858 27.5432 104.886 27.4446 104.928 27.346L107.353 21.646Z" fill="#C3C3C3"/>
</svg>
