<svg width="125" height="34" viewBox="0 0 125 34" fill="none" xmlns="http://www.w3.org/2000/svg">
<path d="M50.0072 0.523926H16.6689V33.863H50.0072V0.523926Z" fill="white"/>
<path d="M66.9688 17.213L50.0068 0.523926V33.863L66.9688 17.213Z" fill="#C3C3C3"/>
<path d="M33.3381 17.4859L50.0072 0.523926H16.6689L33.3381 17.4859Z" fill="#C3C3C3"/>
<path d="M0.291992 17.213L17.2539 33.863V0.523926L0.291992 17.213Z" fill="#C3C3C3"/>
<path d="M33.5138 17.0474L16.8447 33.4245H50.183L33.5138 17.0474Z" fill="#C3C3C3"/>
<path d="M81.6208 18.0728H75.4791V24.0663H72.4082V10.0288H75.4791V15.7858H81.6208V10.0288H84.691V24.0663H81.6208V18.0728Z" fill="#C3C3C3"/>
<path d="M91.8486 24.6512C88.8981 24.6512 86.4834 23.4228 86.4453 20.0545H89.3958C89.4346 21.5603 90.2771 22.4717 91.8867 22.4717C93.0746 22.4717 94.4544 21.8377 94.4544 20.4508C94.4544 19.3412 93.5343 19.0242 92.0016 18.5487L91.0054 18.2713C88.8593 17.6373 86.7132 16.7654 86.7132 14.2293C86.7132 11.0988 89.5495 10.0288 92.1165 10.0288C94.761 10.0288 97.0601 10.9799 97.0982 14.1104H94.1477C94.0327 12.8424 93.3045 12.0895 91.9254 12.0895C90.8136 12.0895 89.7406 12.6839 89.7406 13.9519C89.7406 14.9822 90.6606 15.2992 92.5769 15.9332L93.7261 16.2899C96.0639 17.0428 97.5586 17.875 97.5586 20.2526C97.5198 23.4228 94.5312 24.6512 91.8486 24.6512Z" fill="#C3C3C3"/>
<path fill-rule="evenodd" clip-rule="evenodd" d="M99.3135 10.0431H104.183C105.086 10.0036 106.028 10.0431 106.932 10.2011C108.62 10.5961 109.916 11.7021 109.916 13.5982C109.916 15.4153 108.777 16.3239 107.128 16.7584C109.013 17.1139 110.426 18.062 110.426 20.1556C110.426 23.3553 107.285 24.0663 104.85 24.0663H99.3529L99.3135 10.0431ZM104.181 15.8777C105.529 15.8777 106.917 15.6192 106.917 14.1046C106.917 12.7378 105.648 12.3684 104.379 12.3684H102.237V15.8777H104.181ZM107.502 19.6796C107.502 21.4118 106.062 21.7267 104.582 21.7267H102.237V17.6325H104.747C106.268 17.6325 107.502 17.9474 107.502 19.6796Z" fill="#C3C3C3"/>
<path d="M118.11 24.6512C113.597 24.6512 111.596 21.7663 111.596 17.4586C111.596 13.1509 113.833 10.0288 118.267 10.0288C121.053 10.0288 123.761 11.2935 123.84 14.4551H120.7C120.543 13.0324 119.601 12.321 118.267 12.321C115.52 12.321 114.696 15.285 114.696 17.5376C114.696 19.7903 115.52 22.3986 118.15 22.3986C119.523 22.3986 120.543 21.6477 120.74 20.225H123.879C123.565 23.4656 121.014 24.6512 118.11 24.6512Z" fill="#C3C3C3"/>
</svg>
