<svg width="131" height="34" viewBox="0 0 131 34" fill="none" xmlns="http://www.w3.org/2000/svg">
<path d="M93.2971 23.3476C89.6718 20.6296 86.5217 19.2791 83.608 18.7896V22.5542C83.608 23.6346 83.7096 24.5968 83.9129 25.4579C84.0992 25.3734 84.2855 25.2722 84.4549 25.1878C88.6552 23.1113 93.2971 23.3476 93.2971 23.3476ZM77.7981 27.3486C77.7473 27.1798 77.6795 27.011 77.6288 26.8422C77.2222 25.3397 77.019 23.6852 77.019 21.8451V21.3218C77.019 20.6803 77.0359 20.0725 77.0528 19.4648C76.5447 19.6336 76.0365 19.8193 75.5283 20.0219C68.9055 22.6048 63.248 19.3129 63.248 19.3129C66.2462 22.9593 70.8364 25.6435 70.8364 25.6435C73.445 27.1798 75.7994 27.7369 77.9506 27.7537L77.7981 27.3486Z" fill="#C3C3C3"/>
<path d="M10.1966 9.03198C11.7211 9.03198 13.1777 9.33586 14.6006 9.92669C16.0235 10.5176 17.243 11.3786 18.2593 12.4758L15.8032 14.89C15.2612 14.316 14.5498 13.7927 13.669 13.2862C12.7882 12.7797 11.6025 12.5265 10.112 12.5265C9.60375 12.5265 9.0617 12.5602 8.4689 12.6447C7.87605 12.7291 7.33403 12.881 6.80894 13.1173C6.28384 13.3537 5.84345 13.6913 5.50468 14.1303C5.14897 14.5692 4.97959 15.1432 4.97959 15.8354C4.97959 16.6288 5.33529 17.2365 6.04671 17.6586C6.75812 18.0807 7.65585 18.4689 8.72298 18.7896C9.79007 19.1273 10.9588 19.4312 12.1784 19.7351C13.4149 20.039 14.5667 20.4272 15.6338 20.9168C16.701 21.4064 17.5987 22.0479 18.3101 22.8582C19.0215 23.6686 19.3772 24.7321 19.3772 26.0489C19.3772 28.5136 18.5642 30.4381 16.9551 31.8731C15.3459 33.2911 12.9745 34.0002 9.8409 34.0002C7.46953 34.0002 5.4708 33.595 3.86165 32.8015C2.25251 31.9912 0.94825 30.7251 -0.0341797 29.0032L2.9131 27.1631C3.31962 27.6358 3.74308 28.0747 4.20043 28.4798C4.64082 28.885 5.13203 29.2395 5.67406 29.5434C6.21609 29.8473 6.84281 30.0836 7.55423 30.2524C8.26564 30.4213 9.11253 30.5057 10.095 30.5057C10.6032 30.5057 11.1621 30.455 11.7719 30.3706C12.3816 30.2693 12.9576 30.0836 13.4826 29.7966C14.0078 29.5097 14.4312 29.1214 14.787 28.6149C15.1426 28.1084 15.312 27.467 15.312 26.6735C15.312 25.7281 14.9563 25.019 14.2449 24.5464C13.5335 24.0737 12.6527 23.6854 11.5856 23.3815C10.5184 23.0776 9.3836 22.8076 8.14707 22.5543C6.91057 22.3011 5.75876 21.9297 4.70857 21.4233C3.64146 20.9168 2.76065 20.2246 2.04925 19.313C1.33783 18.4183 0.982122 17.1859 0.982122 15.599C0.982122 14.3667 1.28702 13.3368 1.87986 12.5097C2.47271 11.6825 3.23494 10.9903 4.13267 10.4838C5.03041 9.96044 6.02977 9.58907 7.09689 9.3696C8.19788 9.15013 9.21419 9.03198 10.1966 9.03198ZM24.7975 2.07666C25.4243 2.07666 25.9662 2.29612 26.4066 2.71817C26.8471 3.14021 27.0673 3.68043 27.0673 4.30506C27.0673 4.92969 26.8471 5.46991 26.4066 5.89195C25.9662 6.314 25.4243 6.53347 24.7975 6.53347C24.1708 6.53347 23.6287 6.314 23.1884 5.89195C22.748 5.46991 22.5277 4.94657 22.5277 4.30506C22.5277 3.68043 22.748 3.14021 23.1884 2.71817C23.6287 2.29612 24.1708 2.07666 24.7975 2.07666ZM41.3463 12.5265C39.9235 12.5265 38.6701 12.7966 37.5691 13.3537C36.485 13.9108 35.7059 14.4172 35.2655 14.89V33.4262H31.1833V15.4639C31.1833 13.7927 30.8107 12.2395 30.0993 10.7877L33.8426 9.03198C34.0968 9.47092 34.3169 9.90986 34.5032 10.3487C34.6895 10.7877 34.8589 11.2773 34.9775 11.8175H35.2655C35.926 10.9903 36.8576 10.3319 38.0434 9.80854C39.229 9.28519 40.3639 9.03198 41.4311 9.03198C42.8877 9.03198 44.192 9.26828 45.3438 9.72414C46.4956 10.1799 47.478 10.8046 48.2572 11.6149C49.0534 12.4253 49.6461 13.3706 50.0527 14.4511C50.4593 15.5315 50.6625 16.7132 50.6625 17.9793V33.4262H46.5804V17.9118C46.5804 16.2743 46.0891 14.9575 45.0897 13.9952C44.1243 13.0161 42.8708 12.5265 41.3463 12.5265ZM122.668 30.5901C121.567 31.7549 120.313 32.6159 118.924 33.173C117.535 33.7301 116.027 34.0002 114.418 34.0002C112.86 34.0002 111.386 33.7132 109.964 33.1561C108.541 32.5822 107.271 31.738 106.17 30.6069C104.967 29.4083 104.188 28.024 103.815 26.454C103.459 24.884 103.273 23.2464 103.273 21.5414V20.6466C103.307 19.0091 103.51 17.5404 103.883 16.2574C104.256 14.9575 105.068 13.6745 106.305 12.3746C107.406 11.2435 108.643 10.3994 109.997 9.87603C111.352 9.33586 112.826 9.06573 114.401 9.06573C115.977 9.06573 117.45 9.31894 118.789 9.84229C120.127 10.3656 121.364 11.1759 122.464 12.2733C123.599 13.4381 124.43 14.7043 124.937 16.0549C125.445 17.4053 125.7 18.9079 125.7 20.5454V21.5414C125.7 23.2464 125.513 24.8502 125.124 26.3696C124.751 27.8552 123.921 29.2733 122.668 30.5901ZM121.905 21.5077V20.5622C121.905 18.2663 121.296 16.3925 120.11 14.9406C119.483 14.1809 118.687 13.5901 117.738 13.168C116.79 12.746 115.706 12.5265 114.469 12.5265C113.267 12.5265 112.2 12.7291 111.285 13.1173C110.371 13.5057 109.591 14.0796 108.965 14.7887C107.694 16.2405 107.068 18.1819 107.068 20.6129V21.6933C107.068 23.0101 107.203 24.2425 107.491 25.3736C107.779 26.5047 108.27 27.4838 108.965 28.311C109.54 29.0032 110.269 29.5434 111.166 29.9148C112.064 30.2862 113.165 30.4888 114.469 30.4888C115.672 30.4888 116.706 30.32 117.552 29.9654C118.399 29.6109 119.127 29.1382 119.738 28.4967C120.567 27.6695 121.127 26.6566 121.448 25.4242C121.736 24.2087 121.905 22.9088 121.905 21.5077Z" fill="#C3C3C3"/>
<path d="M92.7042 20.5454C92.7713 20.5961 92.8563 20.6467 92.9243 20.6974C92.8563 20.6467 92.7883 20.5961 92.7042 20.5454ZM91.3994 19.7183C91.7556 19.9376 92.1279 20.1571 92.484 20.3935C92.1279 20.1571 91.7556 19.9208 91.3994 19.7183ZM92.484 20.3935C92.5512 20.4442 92.6362 20.4779 92.7042 20.5454C92.6362 20.4948 92.5682 20.4442 92.484 20.3935ZM95.482 22.5544L94.2452 21.6258C93.8049 21.3051 93.3816 21.0013 92.9413 20.6974" fill="#C3C3C3"/>
<path d="M22.833 9.60547H26.7796V33.4426H22.833V9.60547Z" fill="#C3C3C3"/>
<path d="M58.2852 30.0495C58.2852 30.0157 58.3022 29.9651 58.3022 29.9313L58.2344 30.0157L58.2852 30.0495ZM92.7038 20.545C92.7718 20.5957 92.8568 20.6463 92.924 20.6969C92.8568 20.6463 92.7888 20.5957 92.7038 20.545ZM91.3999 19.7178C91.7552 19.9373 92.1284 20.1567 92.4837 20.393C92.1284 20.1567 91.7552 19.9204 91.3999 19.7178ZM91.3999 19.7178C91.1118 19.549 90.8236 19.3971 90.5525 19.2451H90.5193C90.8066 19.3802 91.0948 19.549 91.3999 19.7178ZM92.4837 20.393C92.5517 20.4437 92.6367 20.4775 92.7038 20.545C92.6367 20.4944 92.5687 20.4437 92.4837 20.393ZM95.4816 22.554L94.2457 21.6255C93.8054 21.3047 93.3813 21.0008 92.941 20.6969" fill="#C3C3C3"/>
<path d="M90.5529 19.2453C90.8402 19.3973 91.1283 19.5491 91.3995 19.718C91.7548 19.9206 92.1279 20.1569 92.4832 20.3933C92.5512 20.4439 92.6362 20.4945 92.7034 20.5452C92.7714 20.5958 92.8564 20.6465 92.9235 20.6972C93.3477 20.9841 93.788 21.288 94.2283 21.6256L95.465 22.5542H100.275V20.427C100.275 18.7557 100.038 17.2364 99.5637 15.8352C99.0894 14.4508 98.378 13.2523 97.4464 12.2393C96.5148 11.2265 95.363 10.4498 93.9911 9.87589C92.6192 9.30189 91.0433 9.03176 89.2651 9.03176C87.6901 9.03176 86.1482 9.3188 84.658 9.90964C83.1673 10.5005 81.897 11.3784 80.8129 12.5769C80.1862 13.2691 79.695 13.9782 79.3392 14.6872C78.9835 15.3962 78.7295 16.1053 78.5771 16.8312C78.5262 17.0337 78.5093 17.2195 78.4754 17.422C78.3907 17.9623 78.323 18.4856 78.2891 19.0258V19.2115C78.2552 19.9037 78.2382 20.5958 78.2382 21.3217V21.8451C78.2382 23.6683 78.4416 25.3396 78.848 26.8421C78.8989 27.011 78.9666 27.1798 79.0174 27.3486C79.2038 27.9057 79.407 28.4458 79.6611 28.9354C79.9999 29.5769 80.3894 30.1509 80.8468 30.6743C81.7615 31.7378 82.9641 32.5482 84.4208 33.139C85.894 33.7299 87.6901 34.0169 89.8074 34.0169C91.8908 34.0169 93.754 33.578 95.397 32.7001C97.0401 31.8222 98.327 30.6068 99.2416 29.0536L95.6342 27.5849C94.9397 28.4965 94.1433 29.2225 93.2627 29.7289C92.3821 30.2523 91.2975 30.5055 90.0276 30.5055C87.4359 30.5055 85.5047 29.8808 84.2175 28.6147C83.9296 28.3277 83.6755 28.007 83.4553 27.6355C83.1673 27.1798 82.9472 26.6733 82.7608 26.0993C82.4559 25.1033 82.3034 23.9215 82.3034 22.571V18.8232C82.3034 18.7557 82.3035 18.6882 82.3204 18.6207C82.3374 18.0467 82.439 17.4727 82.6253 16.9156C82.6761 16.7637 82.7269 16.6117 82.7947 16.4598C83.1335 15.7001 83.6078 15.0417 84.2175 14.4508C84.8273 13.86 85.5727 13.4042 86.4193 13.0496C87.2668 12.6952 88.1984 12.5263 89.2141 12.5263C90.2817 12.5263 91.2473 12.712 92.1109 13.0665C92.9575 13.4211 93.686 13.8938 94.2963 14.4846C94.8887 15.0755 95.363 15.7338 95.6682 16.4936C95.9895 17.2532 96.1425 18.0298 96.1425 18.8063V19.2284H90.5529V19.2453ZM74.4779 0L70.3958 1.13109V9.92655C68.8374 9.33563 67.3299 9.03176 65.8394 9.03176C61.8927 9.03176 58.9115 10.0278 56.9128 12.0368C54.9141 14.0457 53.9316 17.0507 53.9316 21.0854V23.3475C53.9316 24.7994 54.101 26.1668 54.4568 27.4667C54.8125 28.7666 55.3715 29.8808 56.1337 30.8431C56.9128 31.8054 57.8953 32.565 59.0979 33.139C60.3005 33.713 61.7572 33.9831 63.468 33.9831C64.4504 33.9831 65.382 33.8143 66.2628 33.4936C67.1436 33.1559 67.9058 32.7845 68.5326 32.3287C69.2948 31.8222 69.9892 31.2651 70.6159 30.6236C70.6499 31.0626 70.7345 31.569 70.9039 32.1093C71.0564 32.6663 71.2597 33.0884 71.4798 33.4092H75.8499C75.3757 32.4975 75.02 31.6534 74.7997 30.8768C74.6473 30.3535 74.5627 29.7289 74.5118 29.0368C72.2421 28.6653 69.8029 27.2979 69.8029 27.2979C69.7352 27.3823 69.5658 27.5511 69.4642 27.6355C68.5326 28.5134 67.6179 29.1718 66.6863 29.6108C65.4497 30.2016 64.3826 30.4886 63.468 30.4886C62.4517 30.4886 61.6048 30.3029 60.9272 29.9146C60.2497 29.5432 59.6907 29.0198 59.2503 28.3784C58.8099 27.7369 58.4881 26.994 58.3017 26.1837C58.1154 25.3565 58.0139 24.4956 58.0139 23.5839V20.7647C58.0139 19.8361 58.0985 18.9751 58.2679 18.1986L58.2171 18.1648L58.2848 18.0804C58.5897 16.7637 59.1487 15.6494 59.9448 14.7378C61.249 13.2691 63.0784 12.5432 65.4497 12.5432C66.3644 12.5432 67.2622 12.6445 68.1599 12.8302C69.0407 13.0159 69.786 13.286 70.3958 13.6405V19.6842C70.633 19.6842 72.3776 19.6505 74.3764 18.7726L74.4779 18.7219V0Z" fill="#C3C3C3"/>
<path d="M78.3232 19.2114C78.2894 19.836 78.2894 20.5957 78.2894 21.2035C78.2725 20.5113 78.2894 19.8529 78.3232 19.2114ZM78.391 23.9552C78.4418 24.411 78.4926 24.8668 78.5774 25.3058C78.4926 24.8668 78.4249 24.4279 78.391 23.9552ZM78.2725 21.845V21.9125V21.2035V21.845ZM78.6451 25.7784C78.6789 25.981 78.7298 26.1667 78.7806 26.3524C78.6959 26.0147 78.6281 25.6603 78.5774 25.3058C78.5943 25.3902 78.5943 25.4746 78.6112 25.559C78.6112 25.6265 78.6281 25.7109 78.6451 25.7784ZM78.3571 23.6513C78.3063 23.0773 78.2894 22.5034 78.2725 21.9125V21.9462C78.2725 22.5371 78.3063 23.1111 78.3571 23.6513ZM82.4562 24.124C82.4392 23.9889 82.4393 23.8876 82.4223 23.7864C82.4732 24.3435 82.524 24.8668 82.6256 25.3564C82.5917 25.1538 82.5578 24.9343 82.524 24.7487C82.5071 24.546 82.4732 24.3435 82.4562 24.124ZM82.3715 23.0266C82.3715 23.0266 82.3715 23.1111 82.3885 23.2124C82.3885 23.1111 82.3885 23.0098 82.3715 22.9085V23.0266ZM82.3715 23.2124C82.3715 23.3474 82.3885 23.55 82.4223 23.7864C82.4054 23.6007 82.3885 23.4149 82.3715 23.2124Z" fill="#C3C3C3"/>
<path d="M126.056 12.3575C126.056 11.9354 126.157 11.5303 126.377 11.1589C126.597 10.7875 126.885 10.4836 127.258 10.2641C127.631 10.0447 128.037 9.94336 128.477 9.94336C128.901 9.94336 129.308 10.0447 129.68 10.2641C130.053 10.4836 130.358 10.7706 130.578 11.142C130.798 11.5134 130.9 11.9186 130.9 12.3575C130.9 12.7796 130.798 13.1678 130.595 13.5392C130.392 13.9106 130.087 14.2145 129.714 14.434C129.342 14.6535 128.935 14.7716 128.477 14.7716C128.037 14.7716 127.631 14.6535 127.241 14.434C126.868 14.2145 126.581 13.9106 126.36 13.5392C126.157 13.1678 126.056 12.7796 126.056 12.3575ZM126.394 12.3575C126.394 12.7289 126.496 13.0665 126.682 13.4041C126.868 13.7249 127.122 13.9781 127.445 14.1639C127.766 14.3496 128.122 14.434 128.477 14.434C128.85 14.434 129.206 14.3327 129.511 14.1469C129.833 13.9613 130.087 13.708 130.273 13.3873C130.46 13.0665 130.561 12.7289 130.561 12.3406C130.561 11.9692 130.46 11.6147 130.273 11.3108C130.087 10.99 129.833 10.7368 129.511 10.5511C129.189 10.3655 128.85 10.2641 128.46 10.2641C128.088 10.2641 127.733 10.3655 127.428 10.5511C127.105 10.7368 126.851 10.99 126.665 11.3108C126.496 11.6315 126.394 11.9692 126.394 12.3575ZM129.46 11.7666C129.46 11.9354 129.409 12.0874 129.325 12.2225C129.24 12.3575 129.105 12.4588 128.935 12.5094L129.697 13.7756H129.156L128.494 12.6445H128.054V13.7756H127.58V10.9056H128.427C128.782 10.9056 129.037 10.9732 129.206 11.1083C129.376 11.2771 129.46 11.4796 129.46 11.7666ZM128.071 12.2562H128.427C128.596 12.2562 128.731 12.2055 128.833 12.1211C128.935 12.0367 128.986 11.9186 128.986 11.7835C128.986 11.6147 128.935 11.5134 128.85 11.4459C128.765 11.3783 128.613 11.3446 128.41 11.3446H128.071V12.2562Z" fill="#C3C3C3"/>
</svg>
