<svg width="109" height="32" viewBox="0 0 109 32" fill="none" xmlns="http://www.w3.org/2000/svg">
<g clip-path="url(#clip0_314_948)">
<path d="M23.098 4.66197L9.45005 12.2346L6.2832 10.4758L19.9312 2.91016L23.098 4.66197Z" fill="#C3C3C3"/>
<path d="M17.8525 1.75879L4.21177 9.32436L1.04492 7.57255L14.6856 0L17.8525 1.75879Z" fill="#C3C3C3"/>
<path d="M28.3257 7.56577L14.6777 15.1383L11.5254 13.3865L25.1661 5.81396L28.3257 7.56577Z" fill="#C3C3C3"/>
<path d="M8.40174 13.952V29.0901L5.23438 27.3383V12.2002L8.40174 13.952Z" fill="#C3C3C3"/>
<path d="M3.16738 11.0484V26.1865L0 24.4277V9.28955L3.16738 11.0484Z" fill="#C3C3C3"/>
<path d="M13.6498 16.8618V31.9999L10.4824 30.2411V15.103L13.6498 16.8618Z" fill="#C3C3C3"/>
<path d="M24.1225 12.2002V27.3313L20.9551 29.0901V13.952L24.1225 12.2002Z" fill="#C3C3C3"/>
<path d="M18.8861 15.103V30.2411L15.7188 31.9999V16.8618L18.8861 15.103Z" fill="#C3C3C3"/>
<path d="M29.3613 9.28955V24.4277L26.2012 26.1865V11.0483L29.3613 9.28955Z" fill="#C3C3C3"/>
<path d="M35.666 9.27535H41.1354L41.3387 10.9504C41.8941 10.2535 42.6306 9.70952 43.4742 9.37306C44.8548 8.81419 46.3933 8.72795 47.8322 9.12878C48.3 9.26457 48.747 9.45936 49.1614 9.70806C49.4734 9.90091 49.7547 10.136 49.9967 10.406L50.4689 10.9364C50.7601 10.648 51.087 10.3949 51.4422 10.1827C51.8548 9.93008 52.287 9.70842 52.7351 9.51962C53.2031 9.32417 53.6895 9.17226 54.1877 9.06597C54.6645 8.96216 55.1516 8.90834 55.6404 8.90544C57.6814 8.90544 59.2285 9.44285 60.2963 10.5177C61.4053 11.7238 61.9766 13.3005 61.887 14.9076V24.4344H56.1343V16.3384C56.172 15.6603 55.9974 14.987 55.6332 14.4051C55.2454 13.9151 54.6224 13.6514 53.9844 13.7072C53.2881 13.6795 52.6114 13.9325 52.1177 14.4051C51.6149 14.9295 51.3531 15.6264 51.3913 16.3384V24.4344H46.0745V16.3384C46.1109 15.6623 45.9418 14.9906 45.5878 14.4051C45.1991 13.9084 44.568 13.6436 43.9245 13.7072C43.2411 13.6917 42.5805 13.9436 42.0941 14.4051C41.5848 14.9257 41.322 15.6253 41.3678 16.3384V24.4344H35.666V9.27535Z" fill="#C3C3C3"/>
<path fill-rule="evenodd" clip-rule="evenodd" d="M65.0323 13.6928C64.6158 14.6984 64.4061 15.7721 64.4149 16.8544H64.3931C64.381 17.9415 64.5907 19.0204 65.0105 20.03C65.4062 20.9865 65.9936 21.8592 66.7392 22.5984C67.4936 23.3381 68.3952 23.9243 69.3903 24.3222C71.5902 25.1598 74.0398 25.1598 76.2397 24.3222C77.238 23.9262 78.1424 23.3397 78.8981 22.5984C79.6412 21.8573 80.2282 20.9851 80.6268 20.03C81.45 17.9916 81.45 15.7311 80.6268 13.6928C80.2302 12.7324 79.6431 11.8554 78.8981 11.1104C78.1404 10.3712 77.2366 9.78508 76.2397 9.38648C74.0398 8.54891 71.5902 8.54891 69.3903 9.38648C67.3893 10.1936 65.816 11.7482 65.0323 13.6928ZM75.0924 19.2415C74.5304 19.8681 73.7007 20.2127 72.8407 20.1767C71.9805 20.2137 71.1503 19.8689 70.589 19.2415C70.0111 18.5735 69.7133 17.7224 69.7538 16.8545C69.7133 15.9867 70.0111 15.1356 70.589 14.4676C71.1737 13.8716 71.9883 13.5337 72.8407 13.5337C73.6931 13.5337 74.5077 13.8716 75.0924 14.4676C75.6703 15.1356 75.9681 15.9867 75.9277 16.8545C75.9681 17.7224 75.6703 18.5735 75.0924 19.2415Z" fill="#C3C3C3"/>
<path d="M83.8438 2.91748H89.5238V24.4417H83.8438V2.91748Z" fill="#C3C3C3"/>
<path fill-rule="evenodd" clip-rule="evenodd" d="M92.7644 13.693C92.3479 14.6986 92.1382 15.7723 92.147 16.8546C92.1349 17.9417 92.3446 19.0206 92.7644 20.0302C93.163 20.9853 93.75 21.8575 94.4931 22.5985C95.2475 23.3383 96.1491 23.9245 97.1442 24.3224C99.3467 25.1597 101.798 25.1597 104.001 24.3224C104.996 23.9245 105.898 23.3383 106.652 22.5985C107.395 21.8575 107.982 20.9853 108.381 20.0302C109.204 17.9918 109.204 15.7313 108.381 13.693C107.984 12.7326 107.397 11.8556 106.652 11.1106C105.896 10.3731 104.995 9.78716 104.001 9.38676C101.798 8.54946 99.3467 8.54946 97.1442 9.38676C96.1505 9.78716 95.2494 10.3731 94.4931 11.1106C93.7481 11.8556 93.161 12.7326 92.7644 13.693ZM102.825 19.2421C102.263 19.8687 101.433 20.2133 100.573 20.1773C99.713 20.2133 98.8833 19.8687 98.3214 19.2421C97.7435 18.5741 97.4456 17.723 97.4861 16.8552C97.4456 15.9874 97.7435 15.1363 98.3214 14.4683C98.906 13.8723 99.7206 13.5344 100.573 13.5344C101.425 13.5344 102.24 13.8723 102.825 14.4683C103.403 15.1363 103.7 15.9874 103.66 16.8552C103.7 17.723 103.403 18.5741 102.825 19.2421Z" fill="#C3C3C3"/>
</g>
<defs>
<clipPath id="clip0_314_948">
<rect width="109" height="32" fill="white"/>
</clipPath>
</defs>
</svg>
