<svg width="124" height="28" viewBox="0 0 124 28" fill="none" xmlns="http://www.w3.org/2000/svg">
<path fill-rule="evenodd" clip-rule="evenodd" d="M0.364258 8.81409C0.364258 17.8153 0.528529 19.411 1.70214 21.8141C4.24877 27.0276 10.9376 29.1526 16.5131 26.5196C18.2633 25.6928 20.7285 23.2033 21.5055 21.4776L22.0535 20.2609L22.1367 23.6833L22.2195 27.1057L24.843 27.1876L27.4665 27.2691L27.557 20.628C27.6396 14.5763 27.699 13.8978 28.2255 12.9883C28.8398 11.9276 30.859 10.7067 31.9992 10.7067H32.6589L32.0961 11.8079C31.7864 12.4136 31.3781 13.7497 31.1884 14.7768C29.8622 21.9624 36.6497 28.8337 43.8268 27.5715C47.6213 26.9044 50.6616 24.6367 52.3086 21.2451C53.0928 19.6309 53.2039 19.5103 53.2157 20.2609C53.2488 22.3375 55.4589 25.3572 57.8198 26.5516C60.9464 28.133 63.8303 28.129 66.4754 26.5387L68.0726 25.5788V26.4241V27.2697L70.7152 27.1879L73.3578 27.1057L73.5009 20.2609C73.6303 14.0464 73.6969 13.3243 74.2246 12.4179C75.7938 9.72248 79.9104 9.80486 81.3372 12.5605C81.8773 13.6029 81.9364 14.2862 82.0185 20.4748L82.1087 27.2483H84.8042H87.4997V23.6377V20.0273L88.3646 21.7548C90.4465 25.9147 95.0702 28.1878 100.039 27.4941C102.416 27.1622 104.008 26.4384 105.618 24.9576C107.094 23.5986 107.877 22.443 108.483 20.7287L108.901 19.5479L106.271 19.5502L103.641 19.5522L103.007 20.661C102.288 21.9173 99.9678 23.2567 98.5142 23.2538C97.1273 23.2515 95.5886 22.7239 94.6378 21.9253C93.8065 21.2269 92.6417 19.3471 92.6417 18.7037C92.6417 18.5052 95.3826 18.4071 100.927 18.4071H109.212V22.8277V27.2483H111.926H114.64V20.8917C114.64 14.8666 114.673 14.4688 115.283 13.2638C116.069 11.7092 117.677 10.7181 119.425 10.7112L120.639 10.7067V8.13985V5.57306H119.094C117.101 5.57306 114.505 6.38643 112.833 7.53524C111.422 8.50466 110.224 10.2618 109.648 12.2114L109.293 13.4101L108.487 11.708C106.481 7.47619 101.669 4.88117 96.8591 5.43845C93.2975 5.85085 89.4342 8.63695 88.171 11.7029C87.8805 12.4087 87.5725 12.9866 87.4872 12.9872C87.402 12.9877 87.1842 12.4361 87.0038 11.7614C85.5216 6.22988 78.8757 3.62828 74.2862 6.78316L73.5009 7.32306V4.02385V0.724652H70.7868H68.0726L68.0658 9.06678C68.0583 17.9103 67.8947 19.407 66.7753 20.8715C65.2453 22.8742 61.8552 23.193 59.9399 21.5141C58.6892 20.418 58.3592 18.9028 58.3592 14.2577V10.7067H62.5131H66.6664L66.5837 8.21116L66.5015 5.71566L62.4303 5.63667L58.3592 5.55738V3.14116V0.724652H55.6451H52.9311V6.9124V13.1004L52.1569 11.5469C50.0233 7.26545 45.0184 4.70035 40.4408 5.54226C38.2204 5.95096 36.1909 6.92403 34.6367 8.32553L33.5042 9.34715V7.41889V5.49064L31.3644 5.65235C28.8078 5.84543 26.4428 6.82796 24.8278 8.36858C23.6291 9.51223 22.3775 11.8472 22.3518 12.9883C22.3392 13.5413 22.2189 13.4038 21.8164 12.3757C20.6767 9.46718 18.1536 7.01849 15.2555 6.00857C12.614 5.08823 8.79068 5.60073 6.75943 7.14735C6.24859 7.53636 5.7575 7.85469 5.66865 7.85469C5.57951 7.85469 5.50666 6.18624 5.50666 4.14706V0.439453H2.93546H0.364258V8.81409ZM100.293 10.294C101.528 10.8091 102.806 11.9482 103.381 13.0453C103.602 13.4691 103.784 13.8861 103.784 13.9723C103.784 14.0586 101.341 14.1291 98.3556 14.1291C94.756 14.1291 92.9273 14.0281 92.9273 13.8296C92.9273 13.1728 93.837 11.8367 94.766 11.1296C96.474 9.82856 98.4583 9.52878 100.293 10.294ZM14.2896 11.3327C17.5753 12.8605 18.3867 17.6542 15.8369 20.4751C14.537 21.9134 13.4045 22.3999 11.3582 22.3999C7.92019 22.3999 5.50666 19.9883 5.50666 16.5533C5.50666 13.8262 7.42422 11.2226 9.71455 10.8399C10.3071 10.7409 10.9205 10.6217 11.0776 10.5746C11.6024 10.4181 13.0648 10.7635 14.2896 11.3327ZM43.8665 10.8384C46.158 11.2246 48.0744 13.8271 48.0744 16.5533C48.0744 19.9883 45.6609 22.3999 42.2229 22.3999C40.1782 22.3999 39.0443 21.9134 37.749 20.4802C35.3966 17.8781 35.89 13.5858 38.7675 11.6173C39.692 10.985 41.6224 10.4229 42.3606 10.5709C42.5963 10.6183 43.2739 10.7386 43.8665 10.8384ZM120.068 22.3161C118.476 22.897 117.728 24.7317 118.531 26.0873C119.502 27.73 121.775 27.9305 122.922 26.4749C124.472 24.507 122.388 21.4696 120.068 22.3161ZM122.264 23.3051C123.106 24.0949 123.149 25.5984 122.353 26.3927C121.503 27.2421 119.974 27.1533 119.232 26.2116C118.447 25.2148 118.484 24.2406 119.341 23.3853C120.213 22.5149 121.387 22.4826 122.264 23.3051ZM119.497 24.8079C119.497 25.6794 119.625 26.3927 119.782 26.3927C119.939 26.3927 120.068 26.136 120.068 25.8223C120.068 25.4039 120.258 25.2519 120.782 25.2519C121.306 25.2519 121.497 25.4039 121.497 25.8223C121.497 26.136 121.616 26.3927 121.762 26.3927C121.908 26.3927 122.004 25.7191 121.976 24.8954L121.925 23.3981L120.711 23.3106L119.497 23.2227V24.8079ZM121.497 24.2537C121.497 24.5198 121.227 24.6815 120.782 24.6815C120.338 24.6815 120.068 24.5198 120.068 24.2537C120.068 23.9876 120.338 23.8259 120.782 23.8259C121.227 23.8259 121.497 23.9876 121.497 24.2537Z" fill="#C3C3C3"/>
</svg>
