<svg width="121" height="33" viewBox="0 0 121 33" fill="none" xmlns="http://www.w3.org/2000/svg">
<path fill-rule="evenodd" clip-rule="evenodd" d="M16.6217 4.22572V1.58655H22.35V21.993H16.6217V19.3538C14.5557 22.3229 11.8324 22.6528 10.3768 22.6528C4.13194 22.6528 0 17.7515 0 11.7662C0 5.73383 4.08498 0.926758 10.0951 0.926758C11.6445 0.926758 14.6965 1.20952 16.6217 4.22572ZM11.5506 6.0166C8.26388 6.0166 5.91618 8.51439 5.91618 11.7662C5.91618 15.0181 8.26388 17.563 11.5506 17.563C14.8374 17.563 17.1851 15.0181 17.1851 11.7662C17.1851 8.51439 14.8374 6.0166 11.5506 6.0166ZM46.6486 1.58655H26.8341V6.48788H36.6005L25.0499 21.993H45.8504V17.0917H35.098L46.6486 1.58655ZM50.0997 32.9267H56.5794L72.9662 1.58655H66.4866L60.8522 13.18L54.5603 1.58655H47.8929L57.5654 18.9297L50.0997 32.9267ZM90.7852 4.22572V1.58655H96.5136V21.993H90.7852V19.3538C88.7192 22.3229 85.9959 22.6528 84.5404 22.6528C78.2955 22.6528 74.1636 17.7515 74.1636 11.7662C74.1636 5.73383 78.2486 0.926758 84.2586 0.926758C85.8081 0.926758 88.8601 1.20952 90.7852 4.22572ZM85.7142 6.0166C82.4274 6.0166 80.0798 8.51439 80.0798 11.7662C80.0798 15.0181 82.4274 17.563 85.7142 17.563C89.001 17.563 91.3487 15.0181 91.3487 11.7662C91.3487 8.51439 89.001 6.0166 85.7142 6.0166ZM101.373 21.993H107.102V11.5777C107.102 10.3995 107.149 8.93854 107.994 7.61895C108.839 6.34649 110.013 5.82808 111.515 5.82808C112.079 5.82808 113.3 5.92234 114.192 6.8649C115.225 7.94885 115.272 9.73971 115.272 10.8708V21.993H121V9.17418C121 7.1948 120.812 5.16829 119.404 3.42455C117.807 1.44517 115.178 0.926758 113.393 0.926758C110.107 0.926758 108.182 2.71762 107.102 4.22572V1.58655H101.373V21.993Z" fill="#C3C3C3"/>
</svg>
