<svg width="133" height="36" viewBox="0 0 133 36" fill="none" xmlns="http://www.w3.org/2000/svg">
<path d="M45.2773 24.9536V8.5835H51.4216C52.5715 8.5835 53.5724 8.78326 54.4245 9.18278C55.2452 9.55616 55.9357 10.1598 56.4094 10.918C56.8798 11.6772 57.1145 12.5896 57.1136 13.6554C57.1239 14.4007 56.9854 15.1407 56.7059 15.8334C56.444 16.4698 56.0433 17.0418 55.5319 17.5088C54.994 17.9919 54.3591 18.3585 53.6684 18.5849L59.0682 24.9536H54.1426L49.5293 19.0519H49.1548V24.9536H45.2773ZM49.1548 15.8775H50.1668C50.698 15.8917 51.2274 15.8092 51.7282 15.634C52.1162 15.5007 52.4527 15.252 52.6911 14.9223C52.9163 14.5806 53.0303 14.1793 53.0178 13.7721C53.0178 13.0774 52.773 12.5484 52.2834 12.1849C51.7937 11.8215 51.0882 11.6373 50.1668 11.6326H49.1548V15.8775Z" fill="#C3C3C3"/>
<path d="M64.1764 25.2711C63.1199 25.2869 62.0762 25.0422 61.1403 24.5595C60.2702 24.1098 59.5357 23.4427 59.0107 22.6249C58.4864 21.7989 58.2154 20.8416 58.2301 19.8677C58.2234 19.1387 58.3743 18.4167 58.6724 17.7495C58.9665 17.1049 59.3877 16.5243 59.9114 16.0413C60.4498 15.5443 61.0813 15.155 61.7707 14.8954C62.5055 14.6202 63.286 14.4826 64.0722 14.4897C65.0561 14.468 66.0291 14.6949 66.8986 15.1487C67.6923 15.5747 68.3498 16.2102 68.7968 16.9836C69.2663 17.8155 69.5028 18.7553 69.4822 19.7068C69.4822 19.7922 69.4822 19.8719 69.4822 19.9445C69.4822 20.0171 69.4677 20.1623 69.4474 20.3801H62.0106C62.0004 20.7573 62.1007 21.1295 62.2997 21.452C62.4994 21.7627 62.7861 22.0099 63.1253 22.1637C63.5201 22.341 63.9507 22.4276 64.3845 22.4171C64.7922 22.4266 65.1963 22.3397 65.5628 22.1637C65.9642 21.9454 66.3254 21.6619 66.6312 21.3253L69.2697 22.6249C68.7831 23.4606 68.061 24.1395 67.1907 24.5794C66.2591 25.0508 65.2236 25.2885 64.1764 25.2711ZM62.1205 18.5452H65.8678C65.833 18.2454 65.7222 17.959 65.5454 17.7125C65.3798 17.4893 65.1575 17.313 64.9006 17.2014C64.6111 17.0804 64.2986 17.0212 63.984 17.0278C63.6576 17.0207 63.3334 17.0819 63.0328 17.2071C62.7736 17.315 62.5514 17.4939 62.3923 17.7224C62.2315 17.9692 62.1379 18.2525 62.1205 18.5452Z" fill="#C3C3C3"/>
<path d="M76.3534 30.4089C74.9299 30.4089 73.7362 30.1592 72.7723 29.6601C71.8365 29.1892 71.1005 28.4069 70.6949 27.4523L73.6759 26.0145C73.9595 26.4157 74.3476 26.7343 74.7992 26.9369C75.277 27.1664 75.8017 27.2852 76.3332 27.2843C76.7973 27.2951 77.2566 27.1892 77.6676 26.9768C78.0337 26.7844 78.3388 26.4961 78.5495 26.1441C78.7599 25.7821 78.8677 25.3711 78.8618 24.9541V23.9021C78.4073 24.3312 77.876 24.6734 77.2946 24.9113C76.7155 25.1501 76.0937 25.2725 75.4658 25.2715C74.5719 25.2799 73.6932 25.0427 72.9285 24.5868C72.1555 24.1229 71.521 23.4657 71.0895 22.6822C70.6196 21.8201 70.3841 20.8531 70.4057 19.8751C70.3891 18.9151 70.6194 17.9666 71.075 17.1178C71.5016 16.3261 72.1343 15.6605 72.9082 15.1889C73.7069 14.7092 74.6272 14.4623 75.5627 14.4772C76.191 14.4725 76.8147 14.5835 77.4016 14.8046C77.9509 15.0067 78.4504 15.3212 78.8676 15.727V14.8046H82.5441V25.2387C82.5551 26.1469 82.3312 27.0429 81.8935 27.8423C81.4284 28.6556 80.7222 29.3095 79.8695 29.717C78.9577 30.1772 77.7857 30.4079 76.3534 30.4089ZM76.5949 22.2067C77.0195 22.2149 77.4386 22.1102 77.8078 21.9035C78.1559 21.7063 78.4431 21.42 78.6392 21.0751C78.8437 20.7148 78.948 20.3076 78.9413 19.895C78.9496 19.4721 78.8438 19.0546 78.6348 18.685C78.4359 18.341 78.1494 18.054 77.8036 17.8523C77.5373 17.6957 77.2421 17.5931 76.9349 17.5505C76.6279 17.5078 76.3154 17.5261 76.0156 17.604C75.7158 17.682 75.4349 17.8182 75.1892 18.0045C74.9436 18.1909 74.7383 18.4237 74.5853 18.6893C74.3754 19.0607 74.2692 19.4801 74.2773 19.905C74.2709 20.3157 74.3736 20.7211 74.5752 21.0807C74.7684 21.4229 75.0523 21.7073 75.3964 21.9035C75.7606 22.1099 76.1748 22.2147 76.5949 22.2067Z" fill="#C3C3C3"/>
<path d="M90.2454 30.4089C88.8208 30.4089 87.6272 30.1593 86.6643 29.6601C85.7276 29.1894 84.9906 28.4072 84.584 27.4523L87.5664 26.0145C87.8501 26.4157 88.2381 26.7343 88.6898 26.937C89.1678 27.1671 89.693 27.286 90.2252 27.2843C90.6892 27.2952 91.1486 27.1894 91.5595 26.9769C91.9259 26.7848 92.2313 26.4966 92.4414 26.1441C92.6525 25.7823 92.7603 25.3713 92.7537 24.9541V23.9021C92.2998 24.3311 91.7689 24.6733 91.188 24.9114C90.6086 25.149 89.9869 25.2705 89.3591 25.2687C88.4648 25.2769 87.5858 25.0397 86.8205 24.584C86.0475 24.1202 85.413 23.4629 84.9815 22.6794C84.5081 21.8192 84.2685 20.8533 84.2861 19.8751C84.2695 18.9151 84.4998 17.9666 84.9554 17.1178C85.3821 16.3258 86.0154 15.66 86.7901 15.189C87.5885 14.7089 88.5091 14.462 89.4444 14.4772C90.0724 14.4726 90.6955 14.5836 91.282 14.8046C91.8312 15.0069 92.3308 15.3212 92.748 15.7271V14.8046H96.4302V25.2387C96.441 26.1467 96.2176 27.0426 95.7811 27.8423C95.3152 28.6549 94.6093 29.3088 93.7571 29.717C92.8463 30.1774 91.6757 30.4079 90.2454 30.4089ZM90.4868 22.2068C90.912 22.2149 91.3314 22.1101 91.7013 21.9036C92.0489 21.706 92.3361 21.4198 92.5325 21.0751C92.7329 20.7077 92.8377 20.2971 92.8377 19.88C92.8377 19.463 92.7329 19.0525 92.5325 18.6851C92.3336 18.341 92.0471 18.054 91.7013 17.8523C91.3413 17.6442 90.9302 17.5379 90.5128 17.5449C90.1024 17.5365 89.6973 17.6381 89.3409 17.8386C88.9844 18.0392 88.69 18.3312 88.4888 18.6836C88.2795 19.0551 88.1737 19.4746 88.1824 19.8993C88.1733 20.3093 88.2729 20.7146 88.4715 21.0751C88.6651 21.417 88.9488 21.7013 89.2926 21.8978C89.6551 22.1051 90.0678 22.2118 90.4868 22.2068Z" fill="#C3C3C3"/>
<path d="M104.139 25.2709C103.051 25.2873 101.974 25.0507 100.996 24.5805C100.098 24.1521 99.3323 23.4945 98.7797 22.6759C98.2459 21.8361 97.9629 20.8652 97.9629 19.8745C97.9629 18.8838 98.2459 17.913 98.7797 17.0731C99.3327 16.2549 100.098 15.5973 100.996 15.1684C101.98 14.7147 103.053 14.4795 104.139 14.4795C105.225 14.4795 106.298 14.7147 107.282 15.1684C108.18 15.5981 108.945 16.2555 109.498 17.0731C110.031 17.9133 110.314 18.884 110.314 19.8745C110.314 20.865 110.031 21.8356 109.498 22.6759C108.945 23.4938 108.18 24.1513 107.282 24.5805C106.304 25.0501 105.227 25.2867 104.139 25.2709ZM104.139 22.1962C104.55 22.2009 104.954 22.0982 105.311 21.8986C105.66 21.7037 105.951 21.4213 106.153 21.0802C106.366 20.7137 106.474 20.2969 106.465 19.8745C106.474 19.4509 106.366 19.0328 106.153 18.6645C105.953 18.3218 105.662 18.039 105.311 17.8461C104.951 17.6546 104.548 17.5542 104.138 17.5542C103.729 17.5542 103.326 17.6546 102.965 17.8461C102.615 18.039 102.324 18.3218 102.124 18.6645C101.911 19.0328 101.803 19.4509 101.811 19.8745C101.802 20.2969 101.91 20.7137 102.124 21.0802C102.326 21.4213 102.616 21.7037 102.965 21.8986C103.323 22.0982 103.728 22.2008 104.139 22.1962Z" fill="#C3C3C3"/>
<path d="M111.897 24.9537V14.8043H115.574V16.2419C115.958 15.7097 116.456 15.2677 117.034 14.9481C117.579 14.6459 118.193 14.487 118.819 14.4868C119.225 14.4899 119.628 14.5497 120.017 14.6648C120.387 14.7629 120.737 14.9207 121.055 15.1317L119.522 18.1765C119.262 18.0024 118.977 17.8668 118.677 17.7736C118.388 17.6769 118.085 17.6249 117.78 17.6199C117.403 17.6192 117.033 17.7174 116.707 17.9046C116.377 18.0869 116.096 18.3435 115.886 18.6534C115.682 18.9469 115.573 19.2943 115.574 19.6498V24.9537H111.897Z" fill="#C3C3C3"/>
<path d="M125.726 25.2714C124.817 25.2817 123.922 25.039 123.147 24.5711C122.369 24.102 121.731 23.4385 121.298 22.648C120.852 21.7942 120.618 20.8491 120.612 19.8893C120.607 18.9295 120.832 17.982 121.267 17.1234C121.685 16.3344 122.307 15.6684 123.071 15.1932C123.866 14.71 124.786 14.4629 125.72 14.4814C126.354 14.478 126.984 14.589 127.578 14.8088C128.138 15.0087 128.647 15.3231 129.075 15.7313V14.8045H132.751V24.9541H129.08V23.9021C128.625 24.333 128.095 24.6792 127.514 24.9241C126.947 25.1566 126.34 25.2747 125.726 25.2714ZM126.834 22.2067C127.257 22.2153 127.674 22.1105 128.042 21.9035C128.386 21.7064 128.669 21.4198 128.859 21.0751C129.057 20.7056 129.157 20.2926 129.148 19.875C129.156 19.4564 129.053 19.043 128.85 18.675C128.658 18.3305 128.374 18.0441 128.03 17.8465C127.663 17.6485 127.251 17.5448 126.833 17.5448C126.414 17.5448 126.003 17.6485 125.637 17.8465C125.288 18.0451 125 18.331 124.801 18.675C124.592 19.041 124.486 19.4553 124.494 19.875C124.487 20.2927 124.592 20.7049 124.796 21.0708C124.991 21.4172 125.278 21.7051 125.627 21.9035C125.993 22.1096 126.411 22.2144 126.834 22.2067Z" fill="#C3C3C3"/>
<path d="M18.2812 0C14.6656 0 11.1311 1.05568 8.12475 3.03355C5.11841 5.01141 2.77525 7.82263 1.39159 11.1117C0.00792083 14.4008 -0.354109 18.0199 0.351278 21.5116C1.05667 25.0032 2.79779 28.2106 5.35447 30.7279C7.91116 33.2452 11.1686 34.9596 14.7148 35.6542C18.261 36.3486 21.9367 35.9922 25.2773 34.6299C28.6178 33.2675 31.4729 30.9603 33.4816 28.0002C35.4904 25.0401 36.5626 21.5601 36.5626 18C36.5626 13.2261 34.6365 8.64773 31.2081 5.27208C27.7797 1.89642 23.1298 0 18.2812 0ZM11.5225 24.9552H6.23401V13.0519L11.5225 10.3658V24.9552ZM21.8465 24.9253H14.7147V8.8484L18.2597 7.11744L21.8465 8.8669V24.9253ZM30.3285 24.9552H25.0401V10.3658L30.3285 13.0519V24.9552Z" fill="#C3C3C3"/>
</svg>
