<svg width="93" height="54" viewBox="0 0 93 54" fill="none" xmlns="http://www.w3.org/2000/svg">
<path fill-rule="evenodd" clip-rule="evenodd" d="M81.4887 17.8603C79.9154 17.8603 78.4136 18.1756 77.0461 18.7437C76.1325 8.48979 67.4514 0.446289 56.8626 0.446289C54.2717 0.446289 51.7461 0.951621 49.5156 1.80611C48.6489 2.13835 48.418 2.48054 48.4099 3.14404V30.1119L47.823 4.33867C47.8126 3.64691 47.2221 3.08229 46.5049 3.08229C45.7856 3.08229 45.1951 3.64691 45.1846 4.34067L44.6444 30.1339L45.1857 39.4951C45.1951 40.1789 45.7856 40.7425 46.5049 40.7425C47.2221 40.7425 47.8126 40.1789 47.823 39.4851V39.4962L48.4099 30.1419V39.2534C48.4189 39.9497 48.9642 40.5296 49.6501 40.5983C49.6792 40.6013 81.2829 40.6172 81.4879 40.6172C87.8308 40.6172 92.9732 35.5231 92.9732 29.2392C92.9732 22.9554 87.8315 17.8603 81.4887 17.8603ZM48.4099 30.1419L48.4104 30.1339L48.4099 30.1119V30.1419ZM43.544 39.4521C43.5326 40.0945 43.031 40.6169 42.4229 40.6169C41.8148 40.6169 41.3112 40.0945 41.3016 39.4581C41.3016 39.4581 40.8788 30.059 40.8788 30.0442L41.3016 6.63329C41.3112 5.9899 41.8138 5.46746 42.4229 5.46746C43.031 5.46746 43.5336 5.99089 43.544 6.6323L44.0172 30.0521L43.544 39.4521ZM26.7146 40.6172C27.1898 40.6172 27.5762 40.2411 27.5956 39.7599L28.3252 29.9722L27.5966 9.46325C27.5772 8.98199 27.1909 8.60596 26.7157 8.60596C26.2364 8.60596 25.8491 8.98301 25.8338 9.46427L25.1869 29.9711L25.8338 39.7629C25.8491 40.2402 26.2364 40.6172 26.7146 40.6172ZM19.1726 13.627C18.7747 13.627 18.4458 13.9304 18.4267 14.3157L17.6544 29.4943L18.4267 39.3035C18.4469 39.6868 18.7747 39.9892 19.1726 39.9892C19.5683 39.9892 19.8962 39.6859 19.9195 39.3015V39.3045L20.7927 29.4943L19.9195 14.3157C19.8962 13.9304 19.5683 13.627 19.1726 13.627ZM4.41718 21.1595C4.59763 21.1595 4.74402 21.3097 4.77348 21.5275L5.73006 29.7228L4.77256 37.7386C4.7431 37.9555 4.59671 38.1066 4.41718 38.1066C4.23489 38.1066 4.08481 37.9515 4.06088 37.7366L3.21938 29.7228C3.21938 29.7228 4.06088 21.5295 4.06088 21.5275C4.08574 21.3146 4.23581 21.1595 4.41718 21.1595ZM1.16012 24.6518C1.18827 24.4436 1.36165 24.2977 1.58007 24.2977C1.7906 24.2977 1.96511 24.4437 1.99777 24.6509L2.90521 29.6767L1.99777 34.6169C1.96399 34.8241 1.79173 34.9681 1.58007 34.9681C1.36165 34.9681 1.18827 34.8232 1.16012 34.615L0.394531 29.6767L1.16012 24.6518ZM11.6556 19.8032C11.681 19.5018 11.9404 19.276 12.2583 19.276C12.5729 19.276 12.8323 19.5018 12.86 19.8012L13.8888 29.796L12.86 39.464C12.8323 39.7634 12.5729 39.9892 12.2583 39.9892C11.9404 39.9892 11.6799 39.7634 11.6556 39.464L10.7504 29.796L11.6556 19.8032ZM34.8836 40.6172C35.4318 40.6172 35.8736 40.1733 35.8884 39.6074V39.6144L36.4848 30.0696L35.8874 9.61467C35.8726 9.04876 35.4307 8.60596 34.8826 8.60596C34.3305 8.60596 33.8886 9.04876 33.8769 9.61467L33.3464 30.0705L33.8778 39.6134C33.8896 40.1733 34.3315 40.6172 34.8836 40.6172ZM16.7056 39.9997C16.6785 40.3505 16.3884 40.6169 16.0303 40.6169C15.6667 40.6169 15.3777 40.3505 15.3539 39.9987L14.5173 30.0161L15.3539 20.5231C15.3766 20.1703 15.6667 19.9039 16.0303 19.9039C16.3895 19.9039 16.6796 20.1682 16.7056 20.5191L17.6557 30.0161L16.7056 39.9997ZM8.18709 39.3614C8.40513 39.3614 8.5818 39.1731 8.60705 38.9127L9.49557 29.4967L8.60792 19.7257C8.5818 19.4644 8.40513 19.276 8.18709 19.276C7.96627 19.276 7.78968 19.4654 7.76713 19.7257C7.76713 19.7267 6.98491 29.4967 6.98491 29.4967L7.76713 38.9108C7.78873 39.1721 7.96539 39.3614 8.18709 39.3614ZM37.5876 10.3235C37.5992 9.71157 38.0681 9.23368 38.653 9.23368C39.237 9.23368 39.703 9.71157 39.7166 10.3216L40.2503 30.0464L39.7166 39.5363V39.5283C39.703 40.1403 39.237 40.6172 38.653 40.6172C38.0671 40.6172 37.5992 40.1393 37.5876 39.5353L37.1119 30.0454L37.5876 10.3235ZM22.9452 40.6175C23.3803 40.6175 23.7394 40.2784 23.7603 39.8457L24.5597 30.0364L23.7603 11.2611C23.7384 10.8275 23.3803 10.4893 22.9452 10.4893C22.5059 10.4893 22.1478 10.8285 22.1291 11.2611L21.4213 30.0364L22.1302 39.8497C22.1478 40.2784 22.5059 40.6175 22.9452 40.6175ZM31.4287 39.6841V39.6851C31.4117 40.2068 30.9984 40.6169 30.4849 40.6169C29.9704 40.6169 29.5551 40.2068 29.5411 39.6881L28.9524 30.0059L29.5401 8.91281C29.5542 8.38806 29.9694 7.97803 30.4849 7.97803C30.9974 7.97803 31.4126 8.38909 31.4287 8.91281L32.0907 30.007L31.4287 39.6841ZM9.67931 47.953C8.27881 47.6355 7.89994 47.4658 7.89994 46.9307C7.89994 46.5533 8.21569 46.163 9.16179 46.163C9.97018 46.163 10.6016 46.4795 11.1689 47.0395L12.4432 45.8475C11.6099 45.0079 10.6006 44.5087 9.22593 44.5087C7.48275 44.5087 6.06982 45.4581 6.06982 47.0046C6.06982 48.6837 7.20639 49.183 8.83363 49.5473C10.4992 49.9117 10.8024 50.1563 10.8024 50.7044C10.8024 51.3493 10.3087 51.6299 9.26322 51.6299C8.41753 51.6299 7.62249 51.3503 7.00351 50.6544L5.72925 51.7506C6.39796 52.7001 7.68671 53.2961 9.16179 53.2961C11.5736 53.2961 12.6336 52.2009 12.6336 50.5826C12.6336 48.7317 11.0809 48.2695 9.67931 47.953ZM13.2617 48.9029C13.2617 46.3099 14.661 44.5087 17.0267 44.5087C19.3925 44.5087 20.7938 46.3099 20.7938 48.9029C20.7938 51.4959 19.3925 53.2961 17.0267 53.2961C14.661 53.2961 13.2617 51.4959 13.2617 48.9029ZM17.0275 51.4134C15.6985 51.4134 15.1445 50.1788 15.1445 48.5894C15.1445 46.9989 15.6985 45.7644 17.0275 45.7644C18.3584 45.7644 18.9105 46.9989 18.9105 48.5894C18.9105 50.1788 18.3584 51.4134 17.0275 51.4134ZM26.1231 51.6043C27.2056 51.6043 27.8767 50.7508 27.8767 49.3671V44.5087H29.5813V49.3428C29.5813 51.8496 28.2901 53.2961 26.1231 53.2961C24.066 53.2961 22.677 51.8871 22.677 49.3671V44.5087H24.3826V49.3428C24.3826 50.7265 25.0396 51.6043 26.1231 51.6043ZM36.7011 49.3609V49.3626C36.7065 49.6965 36.7113 49.9995 36.7113 50.146C36.609 49.935 36.3594 49.5401 36.1586 49.2224L36.1152 49.1536L33.0944 44.5087H31.4636V53.2961H33.1443V49.4295C33.1443 49.1598 33.1371 48.7045 33.1305 48.2949V48.2941V48.2929C33.1252 47.959 33.1204 47.656 33.1204 47.5095C33.2161 47.7079 33.4455 48.0719 33.6394 48.3795L33.7165 48.502L36.8461 53.2961H38.368V44.5087H36.6873V48.2261C36.6873 48.4957 36.6946 48.9515 36.7011 49.3609ZM40.8788 44.5087H43.5456C45.9805 44.5087 47.7833 45.6885 47.7833 48.9024C47.7833 51.9897 45.6149 53.2961 43.4227 53.2961H40.8788V44.5087ZM42.897 50.7857H42.1331V45.7644H42.9534C44.5948 45.7644 45.2715 46.5966 45.2715 48.2746C45.2715 49.7764 44.5276 50.7857 42.897 50.7857ZM54.3598 47.1256C54.0551 46.5415 53.5677 46.2001 52.8007 46.2001C51.5233 46.2001 50.7903 47.3213 50.7913 48.9029C50.7913 50.4355 51.5344 51.6047 52.8127 51.6047C53.5798 51.6047 54.0312 51.2763 54.4817 50.5204L55.9178 51.3731C55.3335 52.5782 54.3108 53.2961 52.7638 53.2961C50.5356 53.2961 49.0385 51.5927 49.0385 48.9029C49.0385 46.3099 50.5985 44.5087 52.8247 44.5087C54.4317 44.5087 55.4064 45.2885 55.9428 46.3958L54.3598 47.1256ZM58.8674 44.5087H57.1966V53.2961H62.218V51.5625H58.8674V44.5087ZM63.4734 48.9029C63.4734 46.3099 64.8725 44.5087 67.24 44.5087C69.6053 44.5087 71.0054 46.3099 71.0054 48.9029C71.0054 51.4959 69.6053 53.2961 67.24 53.2961C64.8725 53.2961 63.4734 51.4959 63.4734 48.9029ZM67.2401 51.4134C65.9085 51.4134 65.3562 50.1788 65.3562 48.5894C65.3562 46.9989 65.9085 45.7644 67.2401 45.7644C68.5689 45.7644 69.1222 46.9989 69.1222 48.5894C69.1222 50.1788 68.5689 51.4134 67.2401 51.4134ZM75.7085 51.6043C76.7921 51.6043 77.4598 50.7508 77.4598 49.3671V44.5087H79.1659V49.3428C79.1659 51.8496 77.8758 53.2961 75.7085 53.2961C73.6499 53.2961 72.2615 51.8871 72.2615 49.3671V44.5087H73.9666V49.3428C73.9666 50.7265 74.6226 51.6043 75.7085 51.6043ZM84.3412 44.5087H81.6755V53.2961H84.2193C86.4129 53.2961 88.5795 51.9897 88.5795 48.9024C88.5795 45.6885 86.7778 44.5087 84.3412 44.5087ZM82.9306 50.7857H83.6961C85.3263 50.7857 86.0692 49.7764 86.0692 48.2746C86.0692 46.5966 85.3927 45.7644 83.7523 45.7644H82.9306V50.7857Z" fill="#C3C3C3"/>
</svg>
